<svg width="56" height="56" viewBox="0 0 56 56" fill="none" xmlns="http://www.w3.org/2000/svg">
<circle cx="28" cy="28" r="28" fill="#9D0191"/>
<path d="M23.5 27.25L26.5 30.25L33.25 23.5001M40 28C40 35.3627 31.9691 40.7176 29.047 42.4224C28.7149 42.6161 28.5489 42.713 28.3145 42.7632C28.1327 42.8022 27.8673 42.8022 27.6855 42.7632C27.4511 42.713 27.2851 42.6161 26.953 42.4224C24.0309 40.7176 16 35.3627 16 28V20.8265C16 19.6272 16 19.0276 16.1961 18.5121C16.3694 18.0568 16.651 17.6505 17.0165 17.3283C17.4302 16.9637 17.9917 16.7532 19.1146 16.3321L27.1573 13.3161C27.4691 13.1991 27.6251 13.1406 27.7855 13.1175C27.9278 13.0969 28.0722 13.0969 28.2145 13.1175C28.3749 13.1406 28.5309 13.1991 28.8427 13.3161L36.8854 16.3321C38.0083 16.7532 38.5698 16.9637 38.9835 17.3283C39.349 17.6505 39.6306 18.0568 39.8039 18.5121C40 19.0276 40 19.6272 40 20.8265V28Z" stroke="white" stroke-width="3" stroke-linecap="round" stroke-linejoin="round"/>
</svg>
