<svg width="40" height="40" viewBox="0 0 40 40" fill="none" xmlns="http://www.w3.org/2000/svg">
<g clip-path="url(#clip0_64_839)">
<path d="M25.9223 20.4282C25.6243 20.037 25.0653 19.8414 24.2456 19.8414C23.2395 19.8414 22.5316 20.1395 22.1217 20.7356C21.7118 21.3318 21.5069 22.1702 21.5069 23.2508V31.411C21.5069 31.5973 21.451 31.7464 21.3392 31.8582C21.2274 31.97 21.0784 32.0258 20.8921 32.0258H16.6443C16.4952 32.0258 16.3555 31.97 16.2251 31.8582C16.0947 31.7464 16.0294 31.5973 16.0294 31.411V16.3202C16.0294 16.1711 16.0947 16.0314 16.2251 15.901C16.3555 15.7706 16.4952 15.7054 16.6443 15.7054H20.7803C20.9293 15.7054 21.0504 15.7426 21.1436 15.8171C21.2367 15.8917 21.3019 16.0034 21.3392 16.1525V16.432C21.3765 16.5065 21.3951 16.6369 21.3951 16.8232C22.4384 15.8171 23.8543 15.3141 25.6429 15.3141C27.6177 15.3141 29.1641 15.8171 30.2819 16.8232C31.3998 17.8293 31.9587 19.3011 31.9587 21.2387V31.411C31.9587 31.5973 31.8935 31.7464 31.7631 31.8582C31.6327 31.97 31.4929 32.0258 31.3439 32.0258H26.9843C26.8352 32.0258 26.6955 31.97 26.5651 31.8582C26.4347 31.7464 26.3695 31.5973 26.3695 31.411V22.2447C26.3695 21.425 26.2204 20.8195 25.9223 20.4282ZM13.0113 13.1623C12.4524 13.7398 11.7723 14.0286 10.9712 14.0286C10.1701 14.0286 9.49008 13.7398 8.93115 13.1623C8.37223 12.5847 8.09277 11.8954 8.09277 11.0943C8.09277 10.2931 8.37223 9.61312 8.93115 9.0542C9.49008 8.49528 10.1701 8.21582 10.9712 8.21582C11.7723 8.21582 12.4524 8.49528 13.0113 9.0542C13.5702 9.61312 13.8497 10.2931 13.8497 11.0943C13.8497 11.8954 13.5702 12.5847 13.0113 13.1623ZM13.7379 16.3202V31.411C13.7379 31.5973 13.6727 31.7464 13.5423 31.8582C13.4118 31.97 13.2721 32.0258 13.1231 32.0258H8.87526C8.68896 32.0258 8.53991 31.97 8.42813 31.8582C8.31634 31.7464 8.26045 31.5973 8.26045 31.411V16.3202C8.26045 16.1711 8.31634 16.0314 8.42813 15.901C8.53991 15.7706 8.68896 15.7054 8.87526 15.7054H13.1231C13.2721 15.7054 13.4118 15.7706 13.5423 15.901C13.6727 16.0314 13.7379 16.1711 13.7379 16.3202Z" fill="#2C2C2C"/>
</g>
<path fill-rule="evenodd" clip-rule="evenodd" d="M19.718 38.3883C30.0536 38.3883 38.4323 30.0096 38.4323 19.674C38.4323 9.33839 30.0536 0.959708 19.718 0.959708C9.38233 0.959708 1.00365 9.33839 1.00365 19.674C1.00365 30.0096 9.38233 38.3883 19.718 38.3883ZM19.718 39.348C30.5836 39.348 39.392 30.5397 39.392 19.674C39.392 8.80835 30.5836 0 19.718 0C8.8523 0 0.0439453 8.80835 0.0439453 19.674C0.0439453 30.5397 8.8523 39.348 19.718 39.348Z" fill="#2C2C2C"/>
<defs>
<clipPath id="clip0_64_839">
<rect width="24.1454" height="24.1454" fill="white" transform="translate(8.09277 8.04834)"/>
</clipPath>
</defs>
</svg>
