<svg width="41" height="40" viewBox="0 0 41 40" fill="none" xmlns="http://www.w3.org/2000/svg">
<g clip-path="url(#clip0_64_834)">
<path d="M15.7162 31.4675C25.1655 31.4675 30.3346 23.3582 30.3346 16.3383C30.3346 16.1113 30.3346 15.8812 30.3252 15.6542C31.3316 14.8997 32.2002 13.9655 32.8902 12.8955C31.9502 13.3248 30.954 13.6077 29.934 13.7351C31.0084 13.07 31.8131 12.0234 32.1985 10.79C31.1891 11.4094 30.0843 11.8442 28.9324 12.0754C28.158 11.2212 27.1333 10.6553 26.017 10.4654C24.9007 10.2755 23.755 10.4722 22.7575 11.0249C21.76 11.5777 20.9664 12.4557 20.4994 13.5229C20.0325 14.5901 19.9184 15.787 20.1748 16.9283C18.1321 16.8222 16.1337 16.2726 14.3093 15.3151C12.4849 14.3576 10.8752 13.0136 9.58458 11.3703C8.92939 12.5423 8.72944 13.9287 9.02533 15.2478C9.32122 16.567 10.0908 17.7201 11.1777 18.4729C10.3632 18.4443 9.56662 18.2177 8.85217 17.8116V17.8846C8.85358 19.1123 9.26424 20.302 10.0148 21.2523C10.7653 22.2027 11.8096 22.8556 12.9712 23.1005C12.5303 23.2263 12.0748 23.289 11.6175 23.2869C11.2951 23.2879 10.9733 23.257 10.6566 23.1945C10.9849 24.2514 11.6242 25.1755 12.4849 25.8373C13.3456 26.4991 14.3846 26.8656 15.4564 26.8853C13.6356 28.3664 11.3865 29.1697 9.07127 29.1658C8.66331 29.1676 8.25564 29.1432 7.85059 29.0929C10.2004 30.6445 12.9294 31.4683 15.7162 31.4675Z" fill="#2C2C2C"/>
</g>
<path fill-rule="evenodd" clip-rule="evenodd" d="M20.3703 38.3883C30.7059 38.3883 39.0846 30.0096 39.0846 19.674C39.0846 9.33839 30.7059 0.959708 20.3703 0.959708C10.0347 0.959708 1.656 9.33839 1.656 19.674C1.656 30.0096 10.0347 38.3883 20.3703 38.3883ZM20.3703 39.348C31.236 39.348 40.0443 30.5397 40.0443 19.674C40.0443 8.80835 31.236 0 20.3703 0C9.50464 0 0.696289 8.80835 0.696289 19.674C0.696289 30.5397 9.50464 39.348 20.3703 39.348Z" fill="#2C2C2C"/>
<defs>
<clipPath id="clip0_64_834">
<rect width="25.0397" height="25.9339" fill="white" transform="translate(7.85059 7.1543)"/>
</clipPath>
</defs>
</svg>
