<svg width="112" height="112" viewBox="0 0 112 112" fill="none" xmlns="http://www.w3.org/2000/svg">
<path d="M19.117 35.785C-1.66058 58.6895 17.2966 88.1024 34.0116 95.5617C60.8013 107.517 88.1372 72.9529 101.083 61.732C91.8881 58.8213 72.8713 47.8588 70.363 27.2946C67.2278 1.58942 45.0889 7.15436 19.117 35.785Z" fill="#B5E760"/>
<path d="M43.2396 51.4218C44.3996 53.8379 45.9809 56.1023 47.9835 58.1049C49.9862 60.1075 52.2506 61.6889 54.6666 62.8489C54.8744 62.9486 54.9783 62.9985 55.1098 63.0368C55.5771 63.1731 56.1508 63.0752 56.5465 62.7919C56.6579 62.7121 56.7532 62.6169 56.9437 62.4264C57.5264 61.8437 57.8177 61.5523 58.1107 61.3619C59.2155 60.6435 60.6398 60.6435 61.7446 61.3619C62.0376 61.5523 62.3289 61.8437 62.9116 62.4264L63.2364 62.7511C64.1221 63.6369 64.565 64.0797 64.8055 64.5554C65.284 65.5013 65.284 66.6184 64.8055 67.5644C64.565 68.04 64.1221 68.4829 63.2364 69.3686L62.9736 69.6313C62.0909 70.514 61.6496 70.9554 61.0495 71.2925C60.3837 71.6665 59.3495 71.9354 58.5858 71.9332C57.8976 71.9311 57.4272 71.7976 56.4865 71.5306C51.4308 70.0956 46.6602 67.3882 42.6802 63.4082C38.7003 59.4282 35.9928 54.6576 34.5579 49.602C34.2908 48.6612 34.1573 48.1909 34.1553 47.5026C34.153 46.7389 34.422 45.7048 34.796 45.0389C35.1331 44.4389 35.5744 43.9975 36.4571 43.1148L36.7198 42.8521C37.6056 41.9664 38.0485 41.5235 38.5241 41.2829C39.47 40.8045 40.5871 40.8045 41.5331 41.2829C42.0087 41.5235 42.4516 41.9664 43.3373 42.8521L43.6621 43.1769C44.2448 43.7596 44.5361 44.0509 44.7266 44.3439C45.4449 45.4487 45.4449 46.873 44.7266 47.9778C44.5361 48.2708 44.2448 48.5621 43.6621 49.1448C43.4716 49.3353 43.3763 49.4305 43.2966 49.5419C43.0132 49.9376 42.9154 50.5114 43.0516 50.9786C43.0899 51.1101 43.1398 51.214 43.2396 51.4218Z" stroke="#2C2C2C" stroke-width="3" stroke-linecap="round" stroke-linejoin="round"/>
</svg>
