<svg width="112" height="113" viewBox="0 0 112 113" fill="none" xmlns="http://www.w3.org/2000/svg">
<path d="M19.117 36.0769C-1.66058 58.9814 17.2966 88.3942 34.0116 95.8535C60.8013 107.809 88.1372 73.2448 101.083 62.0239C91.8881 59.1132 72.8713 48.1507 70.363 27.5865C67.2278 1.88129 45.0889 7.44623 19.117 36.0769Z" fill="#B5E760"/>
<path d="M32.6055 49.9514L41.2619 55.7224C41.7613 56.0553 42.011 56.2218 42.2811 56.3397C42.5209 56.4444 42.7722 56.5204 43.0298 56.5664C43.32 56.6181 43.6201 56.6181 44.2203 56.6181H54.324C54.9242 56.6181 55.2243 56.6181 55.5145 56.5664C55.7721 56.5204 56.0234 56.4444 56.2631 56.3397C56.5333 56.2218 56.783 56.0553 57.2824 55.7224L65.9388 49.9514M40.6055 71.6181H57.9388C60.7391 71.6181 62.1392 71.6181 63.2088 71.0731C64.1496 70.5937 64.9145 69.8288 65.3938 68.888C65.9388 67.8185 65.9388 66.4183 65.9388 63.6181V52.9514C65.9388 50.1512 65.9388 48.751 65.3938 47.6815C64.9145 46.7407 64.1496 45.9758 63.2088 45.4964C62.1392 44.9514 60.7391 44.9514 57.9388 44.9514H40.6055C37.8052 44.9514 36.4051 44.9514 35.3355 45.4964C34.3947 45.9758 33.6298 46.7407 33.1504 47.6815C32.6055 48.751 32.6055 50.1512 32.6055 52.9514V63.6181C32.6055 66.4183 32.6055 67.8185 33.1504 68.888C33.6298 69.8288 34.3947 70.5937 35.3355 71.0731C36.4051 71.6181 37.8052 71.6181 40.6055 71.6181Z" stroke="#2C2C2C" stroke-width="3" stroke-linecap="round" stroke-linejoin="round"/>
</svg>
