<svg width="56" height="56" viewBox="0 0 56 56" fill="none" xmlns="http://www.w3.org/2000/svg">
<circle cx="28" cy="28" r="28" fill="#9D0191"/>
<path d="M20.7027 26.7835L14.9956 16.5708C14.3394 15.3965 14.0113 14.8093 14.0665 14.3286C14.1148 13.9092 14.3376 13.5295 14.6802 13.2828C15.0728 13 15.7454 13 17.0907 13H20.4429C20.9428 13 21.1928 13 21.417 13.0722C21.6154 13.1361 21.7983 13.2406 21.9541 13.3791C22.1301 13.5357 22.257 13.7511 22.5107 14.1818L28.0002 23.5L33.4896 14.1818C33.7433 13.7511 33.8702 13.5357 34.0462 13.3791C34.202 13.2406 34.3849 13.1361 34.5833 13.0722C34.8075 13 35.0575 13 35.5574 13H38.9097C40.2549 13 40.9275 13 41.3202 13.2828C41.6628 13.5295 41.8855 13.9092 41.9338 14.3286C41.9891 14.8093 41.6609 15.3965 41.0047 16.5708L35.2976 26.7835M25.7502 31L28.0002 29.5V37M26.1252 37H29.8752M34.8945 26.3557C38.7021 30.1633 38.7021 36.3367 34.8945 40.1443C31.0869 43.9519 24.9135 43.9519 21.1059 40.1443C17.2983 36.3367 17.2983 30.1633 21.1059 26.3557C24.9135 22.5481 31.0868 22.5481 34.8945 26.3557Z" stroke="white" stroke-width="3" stroke-linecap="round" stroke-linejoin="round"/>
</svg>
