<svg width="56" height="56" viewBox="0 0 56 56" fill="none" xmlns="http://www.w3.org/2000/svg">
<circle cx="28" cy="28" r="28" fill="#9D0191"/>
<path d="M16.75 43V35.5M16.75 20.5V13M13 16.75H20.5M13 39.25H20.5M29.5 14.5L26.8987 21.2633C26.4757 22.3631 26.2642 22.9131 25.9353 23.3756C25.6438 23.7856 25.2856 24.1438 24.8756 24.4353C24.4131 24.7642 23.8631 24.9757 22.7633 25.3987L16 28L22.7633 30.6013C23.8631 31.0243 24.4131 31.2358 24.8756 31.5647C25.2856 31.8562 25.6438 32.2144 25.9353 32.6244C26.2642 33.0869 26.4757 33.6369 26.8987 34.7367L29.5 41.5L32.1013 34.7367C32.5243 33.6369 32.7358 33.0869 33.0647 32.6244C33.3562 32.2144 33.7144 31.8562 34.1244 31.5647C34.5869 31.2358 35.1369 31.0243 36.2367 30.6013L43 28L36.2367 25.3987C35.1369 24.9757 34.5869 24.7642 34.1244 24.4353C33.7144 24.1438 33.3562 23.7856 33.0647 23.3756C32.7358 22.9131 32.5243 22.3631 32.1013 21.2633L29.5 14.5Z" stroke="white" stroke-width="3" stroke-linecap="round" stroke-linejoin="round"/>
</svg>
