<svg width="112" height="112" viewBox="0 0 112 112" fill="none" xmlns="http://www.w3.org/2000/svg">
<path d="M19.117 35.3689C-1.66058 58.2734 17.2966 87.6862 34.0116 95.1455C60.8013 107.101 88.1372 72.5368 101.083 61.3159C91.8881 58.4051 72.8713 47.4427 70.363 26.8785C67.2278 1.17328 45.0889 6.73822 19.117 35.3689Z" fill="#B5E760"/>
<path d="M49.2728 57.2506C52.0342 57.2506 54.2728 55.012 54.2728 52.2506C54.2728 49.4891 52.0342 47.2506 49.2728 47.2506C46.5114 47.2506 44.2728 49.4891 44.2728 52.2506C44.2728 55.012 46.5114 57.2506 49.2728 57.2506Z" stroke="#2C2C2C" stroke-width="3" stroke-linecap="round" stroke-linejoin="round"/>
<path d="M49.2728 72.2506C55.9395 65.5839 62.6061 59.6144 62.6061 52.2506C62.6061 44.8868 56.6366 38.9172 49.2728 38.9172C41.909 38.9172 35.9395 44.8868 35.9395 52.2506C35.9395 59.6144 42.6061 65.5839 49.2728 72.2506Z" stroke="#2C2C2C" stroke-width="3" stroke-linecap="round" stroke-linejoin="round"/>
</svg>
