<svg width="40" height="40" viewBox="0 0 40 40" fill="none" xmlns="http://www.w3.org/2000/svg">
<path d="M22.1515 33.1954V21.285H26.1696L26.7669 16.6217H22.1515V13.6514C22.1515 12.3057 22.5264 11.3844 24.4577 11.3844H26.9049V7.22679C25.7142 7.09919 24.5174 7.03758 23.3199 7.04224C19.7683 7.04224 17.3298 9.2104 17.3298 13.1907V16.613H13.3379V21.2763H17.3385V33.1954H22.1515Z" fill="#2C2C2C"/>
<path fill-rule="evenodd" clip-rule="evenodd" d="M19.674 38.3883C30.0096 38.3883 38.3883 30.0096 38.3883 19.674C38.3883 9.33839 30.0096 0.959708 19.674 0.959708C9.33839 0.959708 0.959708 9.33839 0.959708 19.674C0.959708 30.0096 9.33839 38.3883 19.674 38.3883ZM19.674 39.348C30.5397 39.348 39.348 30.5397 39.348 19.674C39.348 8.80835 30.5397 0 19.674 0C8.80835 0 0 8.80835 0 19.674C0 30.5397 8.80835 39.348 19.674 39.348Z" fill="#2C2C2C"/>
</svg>
