<svg width="56" height="56" viewBox="0 0 56 56" fill="none" xmlns="http://www.w3.org/2000/svg">
<circle cx="28" cy="28" r="28" fill="#9D0191"/>
<path d="M42.4 28C42.4 35.9529 35.9529 42.4 28 42.4M42.4 28C42.4 20.0471 35.9529 13.6 28 13.6M42.4 28H46M28 42.4C20.0471 42.4 13.6 35.9529 13.6 28M28 42.4V46M13.6 28C13.6 20.0471 20.0471 13.6 28 13.6M13.6 28H10M28 13.6V10M33.4 28C33.4 30.9823 30.9823 33.4 28 33.4C25.0177 33.4 22.6 30.9823 22.6 28C22.6 25.0177 25.0177 22.6 28 22.6C30.9823 22.6 33.4 25.0177 33.4 28Z" stroke="white" stroke-width="3" stroke-linecap="round" stroke-linejoin="round"/>
</svg>
