<svg width="40" height="40" viewBox="0 0 40 40" fill="none" xmlns="http://www.w3.org/2000/svg">
<g clip-path="url(#clip0_64_830)">
<path d="M24.1951 20.1213C24.1951 18.9281 23.7875 17.9094 22.9724 17.0652C22.1573 16.221 21.1738 15.7989 20.0218 15.7989C18.8698 15.7989 17.8862 16.221 17.0711 17.0652C16.2561 17.9094 15.8485 18.9281 15.8485 20.1213C15.8485 21.3144 16.2561 22.3331 17.0711 23.1773C17.8862 24.0215 18.8698 24.4436 20.0218 24.4436C21.1738 24.4436 22.1573 24.0215 22.9724 23.1773C23.7875 22.3331 24.1951 21.3144 24.1951 20.1213ZM26.4447 20.1213C26.4447 21.9672 25.8198 23.5375 24.57 24.8319C23.3202 26.1264 21.8041 26.7736 20.0218 26.7736C18.2394 26.7736 16.7234 26.1264 15.4736 24.8319C14.2238 23.5375 13.5988 21.9672 13.5988 20.1213C13.5988 18.2753 14.2238 16.705 15.4736 15.4106C16.7234 14.1162 18.2394 13.4689 20.0218 13.4689C21.8041 13.4689 23.3202 14.1162 24.57 15.4106C25.8198 16.705 26.4447 18.2753 26.4447 20.1213ZM28.2053 13.1988C28.2053 13.6265 28.0586 13.9923 27.7652 14.2963C27.4717 14.6002 27.1185 14.7521 26.7055 14.7521C26.2926 14.7521 25.9394 14.6002 25.6459 14.2963C25.3525 13.9923 25.2058 13.6265 25.2058 13.1988C25.2058 12.7711 25.3525 12.4052 25.6459 12.1013C25.9394 11.7974 26.2926 11.6455 26.7055 11.6455C27.1185 11.6455 27.4717 11.7974 27.7652 12.1013C28.0586 12.4052 28.2053 12.7711 28.2053 13.1988ZM20.0218 9.4843C19.9457 9.4843 19.53 9.48148 18.7747 9.47586C18.0194 9.47023 17.4461 9.47023 17.0548 9.47586C16.6636 9.48148 16.1392 9.49837 15.4817 9.52651C14.8242 9.55465 14.2645 9.61093 13.8026 9.69535C13.3407 9.77977 12.9522 9.88389 12.637 10.0077C12.0936 10.2328 11.6155 10.5592 11.2025 10.987C10.7895 11.4147 10.4743 11.91 10.257 12.4728C10.1374 12.7992 10.0369 13.2016 9.95538 13.68C9.87387 14.1584 9.81953 14.7381 9.79236 15.419C9.76519 16.1 9.74889 16.6431 9.74346 17.0484C9.73802 17.4536 9.73802 18.0473 9.74346 18.8296C9.74889 19.6119 9.75161 20.0425 9.75161 20.1213C9.75161 20.2001 9.74889 20.6306 9.74346 21.4129C9.73802 22.1952 9.73802 22.7889 9.74346 23.1942C9.74889 23.5994 9.76519 24.1425 9.79236 24.8235C9.81953 25.5045 9.87387 26.0841 9.95538 26.5625C10.0369 27.0409 10.1374 27.4433 10.257 27.7697C10.4743 28.3325 10.7895 28.8278 11.2025 29.2555C11.6155 29.6833 12.0936 30.0097 12.637 30.2348C12.9522 30.3586 13.3407 30.4627 13.8026 30.5472C14.2645 30.6316 14.8242 30.6879 15.4817 30.716C16.1392 30.7441 16.6636 30.761 17.0548 30.7667C17.4461 30.7723 18.0194 30.7723 18.7747 30.7667C19.53 30.761 19.9457 30.7582 20.0218 30.7582C20.0979 30.7582 20.5136 30.761 21.2689 30.7667C22.0242 30.7723 22.5975 30.7723 22.9887 30.7667C23.38 30.761 23.9043 30.7441 24.5618 30.716C25.2194 30.6879 25.7791 30.6316 26.2409 30.5472C26.7028 30.4627 27.0914 30.3586 27.4065 30.2348C27.9499 30.0097 28.4281 29.6833 28.8411 29.2555C29.2541 28.8278 29.5692 28.3325 29.7866 27.7697C29.9061 27.4433 30.0067 27.0409 30.0882 26.5625C30.1697 26.0841 30.224 25.5045 30.2512 24.8235C30.2784 24.1425 30.2947 23.5994 30.3001 23.1942C30.3055 22.7889 30.3055 22.1952 30.3001 21.4129C30.2947 20.6306 30.292 20.2001 30.292 20.1213C30.292 20.0425 30.2947 19.6119 30.3001 18.8296C30.3055 18.0473 30.3055 17.4536 30.3001 17.0484C30.2947 16.6431 30.2784 16.1 30.2512 15.419C30.224 14.7381 30.1697 14.1584 30.0882 13.68C30.0067 13.2016 29.9061 12.7992 29.7866 12.4728C29.5692 11.91 29.2541 11.4147 28.8411 10.987C28.4281 10.5592 27.9499 10.2328 27.4065 10.0077C27.0914 9.88389 26.7028 9.77977 26.2409 9.69535C25.7791 9.61093 25.2194 9.55465 24.5618 9.52651C23.9043 9.49837 23.38 9.48148 22.9887 9.47586C22.5975 9.47023 22.0242 9.47023 21.2689 9.47586C20.5136 9.48148 20.0979 9.4843 20.0218 9.4843ZM32.5416 20.1213C32.5416 22.6989 32.5144 24.483 32.4601 25.4735C32.3514 27.8148 31.6776 29.627 30.4387 30.9102C29.1997 32.1934 27.45 32.8912 25.1895 33.0038C24.2331 33.0601 22.5105 33.0882 20.0218 33.0882C17.533 33.0882 15.8105 33.0601 14.8541 33.0038C12.5936 32.8912 10.8438 32.1934 9.60489 30.9102C8.36595 29.627 7.69214 27.8148 7.58346 25.4735C7.52912 24.483 7.50195 22.6989 7.50195 20.1213C7.50195 17.5436 7.52912 15.7595 7.58346 14.769C7.69214 12.4278 8.36595 10.6155 9.60489 9.33234C10.8438 8.04915 12.5936 7.35128 14.8541 7.23872C15.8105 7.18244 17.533 7.1543 20.0218 7.1543C22.5105 7.1543 24.2331 7.18244 25.1895 7.23872C27.45 7.35128 29.1997 8.04915 30.4387 9.33234C31.6776 10.6155 32.3514 12.4278 32.4601 14.769C32.5144 15.7595 32.5416 17.5436 32.5416 20.1213Z" fill="#2C2C2C"/>
</g>
<path fill-rule="evenodd" clip-rule="evenodd" d="M20.0217 38.3883C30.3573 38.3883 38.736 30.0096 38.736 19.674C38.736 9.33839 30.3573 0.959708 20.0217 0.959708C9.68604 0.959708 1.30736 9.33839 1.30736 19.674C1.30736 30.0096 9.68604 38.3883 20.0217 38.3883ZM20.0217 39.348C30.8873 39.348 39.6957 30.5397 39.6957 19.674C39.6957 8.80835 30.8873 0 20.0217 0C9.15601 0 0.347656 8.80835 0.347656 19.674C0.347656 30.5397 9.15601 39.348 20.0217 39.348Z" fill="#2C2C2C"/>
<defs>
<clipPath id="clip0_64_830">
<rect width="25.0397" height="25.9339" fill="white" transform="translate(7.50195 7.1543)"/>
</clipPath>
</defs>
</svg>
