<svg width="906" height="386" viewBox="0 0 906 386" fill="none" xmlns="http://www.w3.org/2000/svg">
<path d="M0.290781 0.494507C3.28168 3.21835 13.3225 10.8558 20.1589 15.716C61.3371 45.0375 108.177 64.3181 160.998 73.7715C169.757 75.3203 177.234 76.7624 200.788 81.2487C206.823 82.4237 213.926 83.7589 216.543 84.1862C219.214 84.6135 225.569 85.8419 230.697 86.8566C235.824 87.8714 247.04 90.0612 255.532 91.6634C281.061 96.6305 289.179 98.2861 301.196 101.277C307.499 102.826 317.005 104.855 322.293 105.817C338.85 108.701 351.401 111.211 358.077 112.867C361.602 113.775 368.118 115.27 372.497 116.232C376.93 117.193 384.835 119.062 390.122 120.397C395.41 121.733 402.139 123.388 405.077 124.136C416.292 126.913 435.306 132.094 442.463 134.391C446.575 135.672 451.863 137.221 454.213 137.862C461.049 139.731 485.564 147.85 494.002 151.107C498.275 152.71 504.417 154.953 507.622 156.021C510.88 157.143 516.861 159.493 520.974 161.202C525.086 162.964 531.122 165.421 534.326 166.703C537.584 167.985 542.391 170.068 545.008 171.403C547.678 172.738 552.806 175.088 556.491 176.69C560.176 178.239 565.944 181.07 569.309 182.939C590.566 194.743 616.095 205.691 636.658 211.833C664.59 220.165 688.411 223.957 717.519 224.652L728.681 224.919L731.191 232.022C747.748 279.449 777.176 317.369 819.262 345.409C841.374 360.15 867.437 372.754 895.05 381.941C904.93 385.252 905.998 385.519 905.678 384.611C905.571 384.291 900.925 382.528 895.263 380.605C867.224 371.152 841.481 358.761 819.423 343.967C783.746 320.093 757.148 288.849 740.217 250.929C736.639 243.024 730.07 226.094 730.07 224.919C730.07 224.598 731.458 224.384 733.167 224.384H736.265L739.096 231.434C757.522 277.259 787.858 312.883 830.852 339.107C850.24 350.963 872.511 361.271 896.331 369.39C904.289 372.113 907.013 372.701 905.464 371.312C905.197 371.099 900.925 369.496 895.904 367.787C857.61 354.809 823.535 335.956 798.433 313.791C780.808 298.249 766.014 280.25 754.691 260.542C750.418 253.172 743.689 239.286 740.271 231.007L737.654 224.491L740.057 224.171C743.903 223.637 743.956 223.69 745.345 226.895C750.098 237.79 757.896 251.997 764.946 262.572C778.031 282.226 797.899 302.628 817.714 316.889C838.276 331.629 862.203 343.914 891.631 354.702C901.672 358.387 905.785 359.562 905.785 358.761C905.785 358.387 904.77 357.8 903.542 357.426C898.201 355.824 881.324 349.468 872.832 345.836C813.387 320.414 775.093 285.431 749.938 233.571C747.481 228.497 745.558 224.224 745.665 224.117C745.718 224.011 747.16 223.797 748.763 223.583C751.647 223.209 751.754 223.263 752.448 224.758C753.783 227.696 761.794 241.796 764.999 246.816C782.036 273.627 806.338 297.394 833.95 314.218C851.361 324.9 871.336 334.3 893.661 342.365C899.429 344.448 904.556 346.157 904.984 346.157C907.28 346.157 905.037 344.982 898.468 342.685C889.709 339.694 877.905 334.994 868.505 330.882C829.196 313.47 798.273 289.864 775.627 259.848C768.738 250.768 760.299 237.203 755.225 227.108C753.249 223.209 753.409 222.782 757.308 222.782H759.712L761.794 226.414C765.8 233.357 774.933 246.603 780.381 253.492C793.306 269.675 811.572 286.285 829.41 298.089C846.928 309.678 869.52 320.627 894.943 329.814C900.284 331.736 904.93 333.339 905.251 333.339C906.693 333.339 905.251 332.003 903.061 331.309C885.917 325.755 861.562 315.286 846.768 307.061C817.553 290.825 793.519 269.835 775.147 244.413C770.927 238.645 763.61 227.322 761.955 224.064L761.1 222.355L764.038 221.981C765.693 221.767 767.082 221.714 767.189 221.821C767.242 221.928 769.859 225.559 773.01 229.886C789.514 253.012 807.993 270.85 831.547 286.446C848.851 297.875 873.312 309.465 898.254 318.064C904.823 320.36 906.8 320.734 905.464 319.506C905.197 319.239 901.726 317.903 897.773 316.515C846.501 298.676 810.984 275.283 782.891 240.834C778.458 235.387 769.058 222.408 769.058 221.714C769.058 221.5 770.393 221.127 772.049 220.913C774.773 220.592 775.093 220.646 775.894 221.821C779.259 226.574 788.873 237.363 797.044 245.481C821.399 269.729 848.584 286.713 885.489 300.599C892.166 303.109 905.144 307.702 905.625 307.702C905.731 307.702 905.785 307.382 905.785 307.008C905.785 306.634 904.129 305.78 901.939 305.085C894.836 302.842 879.454 296.967 871.336 293.442C833.523 276.939 804.522 255.362 781.128 226.2L776.482 220.379L779.473 219.898L782.464 219.471L790.582 227.696C802.225 239.499 810.984 247.083 823.001 255.682C833.576 263.32 848.904 272.239 861.188 277.954C874.327 284.042 904.77 295.525 905.625 294.671C906.265 294.03 904.984 293.442 895.904 290.344C858.945 277.793 830.051 261.717 805.376 240.033C798.753 234.212 784.226 219.738 784.6 219.364C784.707 219.204 786.042 218.937 787.591 218.616L790.315 218.136L794.481 221.874C816.966 242.063 841.961 258.032 868.933 269.355C882.819 275.176 905.785 282.974 905.785 281.852C905.785 281.532 903.328 280.41 900.337 279.449C891.044 276.458 875.983 270.904 868.666 267.806C850.88 260.275 829.464 247.991 814.189 236.508C806.231 230.473 792.558 218.777 792.558 217.975C792.558 217.174 797.952 216.8 798.967 217.548C818.995 232.022 827.861 237.63 844.098 246.068C862.524 255.575 879.347 262.305 901.405 268.927C904.823 269.942 905.785 270.049 905.785 269.515C905.785 269.088 904.823 268.5 903.542 268.18C902.26 267.806 896.812 266.097 891.364 264.334C860.334 254.187 833.469 240.674 807.94 222.408C803.56 219.311 800.035 216.694 800.035 216.587C800.035 216.533 801.264 216.213 802.759 215.892L805.43 215.305L812.212 219.204C834.698 232.182 856.809 242.383 878.92 250.021C888.053 253.172 905.251 258.192 905.678 257.818C906.319 257.178 904.823 256.59 896.972 254.293C867.437 245.801 836.46 232.396 810.984 217.014L807.78 215.038L810.45 214.504C813.12 213.916 813.174 213.916 822.2 217.869C845.005 227.803 867.811 236.081 888.427 241.956C902.046 245.801 907.067 246.87 905.678 245.481C905.518 245.321 900.497 243.879 894.516 242.276C875.662 237.149 859.159 231.595 839.825 223.85C828.556 219.311 817.019 214.344 816.378 213.703C816.111 213.436 817.019 213.115 818.408 212.902C820.598 212.528 822.787 213.062 836.246 217.067C867.277 226.361 904.556 235.921 905.625 234.906C906.265 234.212 905.464 233.945 897.453 232.129C879.347 228.07 855.26 221.607 833.416 214.931C823.482 211.94 823.161 211.78 826.259 211.299C828.021 211.032 833.149 211.78 846.768 214.237C906.159 224.919 905.785 224.865 905.785 223.904C905.785 223.637 904.182 223.156 902.206 222.836C892.059 221.073 832.882 210.391 832.721 210.231C831.333 208.842 857.877 210.338 891.311 213.436C899.055 214.183 905.571 214.664 905.731 214.45C906.426 213.756 904.076 213.329 894.943 212.474C880.202 211.086 860.441 209.537 852.376 209.11C842.762 208.629 841.16 208.095 847.569 207.667C859.8 206.813 876.73 206.172 890.67 206.065C903.275 205.958 905.785 205.852 905.785 205.211C905.785 204.57 902.954 204.516 886.985 204.783C876.624 204.997 865.621 205.264 862.524 205.424L856.916 205.638L860.387 204.89C868.559 203.128 899.696 198.748 904.129 198.748C905.251 198.748 905.785 198.481 905.785 197.947C905.785 197.36 905.304 197.199 903.542 197.413C882.712 199.763 874.38 200.938 855.581 204.356C839.131 207.294 830.104 208.095 820.064 207.347C789.407 205.157 763.664 190.683 729.536 156.555C712.765 139.785 700.588 125.952 679.331 99.4611C663.415 79.6464 649.529 65.7601 633.506 53.6363C601.087 29.0682 569.202 15.449 532.19 10.3751C522.416 9.03992 495.658 9.03992 485.724 10.3751C464.521 13.2592 445.507 18.1728 418.322 27.8932L407.747 31.6319L406.412 29.9762C405.664 29.0682 400.59 21.9648 395.196 14.2206C386.757 2.20358 383.98 -1.26801 383.98 0.387665C383.98 0.70813 396.958 19.241 402.513 26.8251C404.382 29.3887 405.878 31.6853 405.878 31.8989C405.878 32.3262 390.176 38.5216 389.214 38.5216C388.787 38.5216 378.693 24.8489 368.278 10.3217C364.219 4.66037 360.587 0.0672302 360.16 0.0672302C359.572 0.0672302 359.839 0.761536 361.175 2.57745C362.189 4.01947 366.088 9.46719 369.88 14.7547C373.619 20.0421 379.227 27.6796 382.271 31.7921C385.315 35.8512 387.719 39.2159 387.612 39.3228C386.597 40.1239 371.002 45.5182 370.681 45.1443C367.156 41.0852 354.178 23.941 344.511 10.5888C340.292 4.82062 336.5 0.0672302 336.072 0.0672302C335.485 0.0672302 335.378 0.280853 335.752 0.70813C336.019 1.082 339.491 5.83539 343.389 11.2831C350.813 21.591 359.626 33.3409 365.981 41.3523C368.011 43.9159 369.613 46.1057 369.506 46.2125C369.079 46.5863 354.445 51.8738 353.858 51.8738C352.576 51.8738 336.126 31.4716 321.438 11.6035C316.845 5.40811 312.679 0.227448 312.199 0.174042C310.49 -0.199829 333.135 30.0296 346.754 46.1591C349.638 49.6306 351.935 52.5681 351.828 52.7284C351.668 52.8352 348.196 54.117 344.084 55.5591L336.553 58.2295L332.868 54.384C323.842 44.8239 310.703 28.908 297.244 11.1229C292.651 5.03424 288.485 0.0672302 288.058 0.0672302C286.082 0.0672302 323.949 47.7079 331.372 54.5443C332.173 55.292 333.295 56.5204 333.829 57.3215L334.844 58.7636L327.954 60.8999C324.162 62.1283 320.637 63.0897 320.05 63.0897C318.875 63.0897 309.154 53.3159 299.274 42.2602C290.461 32.433 281.542 21.5376 272.356 9.57401C266.214 1.50925 263.81 -1.05435 263.81 0.387665C263.81 0.547913 264.932 2.15018 266.32 3.96606C283.785 26.8251 295.909 41.192 309.688 55.1852C314.228 59.8318 317.807 63.7306 317.7 63.8374C317.539 63.9977 314.282 64.959 310.383 66.0272L303.279 67.9499L298.045 63.4101C285.174 52.1943 265.519 30.8307 248.856 9.94788C244.636 4.66037 240.844 0.227448 240.47 0.174042C239.189 -0.146423 240.15 1.18881 248.695 11.8172C264.398 31.4716 278.124 46.5329 291.796 59.2977C296.924 64.1579 301.09 68.2169 300.929 68.3238C300.822 68.4306 297.671 69.2317 293.933 70.0862L287.096 71.5817L285.174 70.1396C266.641 56.0397 245.437 34.6228 223.753 8.18536C220.068 3.75244 216.757 0.0672302 216.383 0.0672302C215.475 0.0672302 215.635 0.334259 223.593 10.0547C242.126 32.7534 260.979 52.0875 278.658 66.5078C282.236 69.4453 285.067 71.9022 285.013 71.9556C284.96 72.0624 281.809 72.6499 278.07 73.2374L271.287 74.4124L265.84 70.5669C254.357 62.5022 240.364 50.8056 229.415 40.1773C222.846 33.7682 208.799 18.4933 200.307 8.45242C196.355 3.85925 192.83 0.0672302 192.402 0.0672302C191.495 0.0672302 192.67 1.56268 204.259 14.9683C223.326 37.133 246.185 58.4965 263.97 70.7806C266.801 72.7567 269.151 74.4658 269.151 74.5726C269.151 74.7862 259.751 75.9078 257.401 76.0146C256.012 76.0681 254.25 75.3203 250.565 73.0237C224.982 57.4818 199.72 35.2103 174.617 6.04901C171.68 2.68427 169.116 0.120636 168.529 0.120636C167.514 0.0672302 168.208 0.921753 180.599 14.8081C202.123 38.8955 228.133 61.2738 249.283 73.7715C251.419 74.9999 253.075 76.1749 252.968 76.2817C252.808 76.3885 249.977 76.709 246.666 76.976L240.577 77.4567L233.634 73.6646C203.031 56.9477 177.822 36.1182 148.661 3.59219C146.845 1.56268 145.029 0.0672302 144.655 0.174042C143.8 0.441071 150.637 8.07855 162.867 20.5228C185.726 43.8625 206.876 60.4193 230.697 73.5578L237.319 77.243L231.765 77.5635L226.157 77.8839L219.214 74.7328C188.61 60.6863 163.775 42.6875 134.133 12.9922C126.977 5.83539 120.835 0.120636 120.514 0.227448C119.606 0.494507 142.999 24.0478 152.025 31.9523C173.068 50.325 192.99 63.6772 214.834 74.0385C218.519 75.801 221.564 77.4567 221.564 77.6703C221.617 77.9373 219.16 77.9373 216.169 77.7771C211.576 77.4567 209.814 77.0294 205.327 75.2669C193.845 70.7271 177.395 62.7158 166.606 56.4136C155.924 50.1113 140.275 38.8955 128.686 29.175C120.941 22.6592 102.676 5.72858 99.4711 2.04333C98.5097 0.975159 97.3347 0.0672302 96.8006 0.0672302C94.8779 0.0672302 117.256 21.5376 130.555 32.4864C152.239 50.2715 177.021 65.226 200.788 74.8396C203.885 76.0681 206.502 77.1896 206.663 77.3499C206.823 77.5101 204.633 77.4567 201.856 77.243C198.117 76.9226 195.233 76.3351 190.907 74.7862C149.141 60.3658 113.838 38.5216 80.2439 6.26266C76.078 2.31039 73.3541 0.0672302 72.7666 0.174042C72.1257 0.280853 74.3689 2.68427 80.0836 7.97174C113.678 39.3228 142.839 57.909 182.095 73.0237C190.533 76.2817 190.747 76.3885 187.703 76.1215C183.056 75.6942 177.341 74.1453 165.591 70.2465C124.466 56.5204 89.537 35.8512 55.1417 4.98083C52.1508 2.25699 49.2667 0.0672302 48.7326 0.0672302C47.9849 0.120636 48.2519 0.547913 49.694 1.82971C50.8156 2.79108 54.5008 6.04901 57.9724 9.14673C89.6438 37.3466 123.398 57.1079 163.401 70.9408C168.849 72.8101 172.321 74.1987 171.146 74.0385C167.407 73.451 158.061 71.101 149.782 68.6976C105.399 55.6659 68.0666 35.5841 32.2293 5.62173C28.5975 2.57745 25.1793 0.0672302 24.6986 0.0672302C23.577 0.120636 23.577 0.0672302 34.2588 8.93311C65.3962 34.7296 99.7915 53.7431 138.566 66.6147C143.266 68.1635 146.684 69.4453 146.204 69.4987C144.708 69.4987 126.175 64.7454 117.416 62.0215C77.0927 49.5772 38.5849 29.4955 7.71461 4.76721C4.51008 2.20358 1.35896 0.0672302 0.82487 0.0672302C0.183963 0.0672302 -0.0296724 0.227448 0.290781 0.494507ZM531.923 11.7638C565.57 16.1433 596.494 28.641 626.296 49.9511C639.168 59.1374 655.457 73.3442 662.294 81.3555L665.178 84.7203L660.692 80.7146C615.401 40.0171 562.419 19.7217 508.903 22.4989C483.534 23.8342 461.156 28.7478 424.411 41.1386L416.506 43.8091L412.5 38.3614L408.495 32.9137L410.257 32.166C413.408 30.8307 433.223 24.1012 441.128 21.6444C459.928 15.7694 478.3 12.1376 495.658 10.749C504.738 10.0547 522.363 10.5354 531.923 11.7638ZM541.803 24.9023C565.464 28.1603 584.851 34.1955 606.695 45.1443C622.985 53.3159 638.153 63.3033 652.36 75.2669C659.677 81.4089 670.359 91.5032 672.495 94.2271C674.151 96.31 674.044 96.31 670.893 93.4259C661.279 84.6135 643.067 71.3681 630.996 64.4249C604.505 49.2034 578.923 40.3909 550.082 36.5455C539.987 35.2103 515.686 35.2103 504.417 36.5455C484.442 38.9489 466.871 42.9545 438.511 51.6602C432.155 53.6363 426.707 55.3454 426.333 55.4522C425.586 55.7193 417.467 45.3579 418.055 44.8773C418.749 44.183 445.08 35.7444 455.495 32.8603C471.464 28.4273 486.685 25.5432 501.747 24.1546C509.438 23.4069 534.7 23.8876 541.803 24.9023ZM414.583 44.3966C414.049 44.8239 398.294 50.325 398.08 50.1647C396.958 48.9363 390.389 40.3909 390.389 40.1239C390.389 39.6966 394.341 38.0943 403.741 34.5693L407.16 33.2875L411.112 38.6284C413.248 41.5659 414.85 44.183 414.583 44.3966ZM546.076 37.5068C554.087 38.2546 565.784 40.2841 574.543 42.5273C610.808 51.6068 648.354 72.9703 675.806 100.102C679.919 104.215 682.002 106.458 680.399 105.176C678.797 103.894 675.539 101.277 673.189 99.3543C647.767 78.7385 616.362 62.6624 586.133 54.8113C570.591 50.7522 559.054 49.2034 541.216 48.8295C511.734 48.1886 488.662 51.9272 445.294 64.3181L435.253 67.1488L433.757 65.5465C431.888 63.4636 427.562 58.2295 427.081 57.3749C426.654 56.6806 434.131 54.1704 452.076 48.9897C479.048 41.192 492.827 38.6818 518.838 36.7057C522.897 36.3853 539.453 36.8659 546.076 37.5068ZM392.632 45.3579C394.608 47.9216 396.264 50.2181 396.371 50.4852C396.478 50.7522 392.953 52.2477 388.52 53.7965C382.164 56.0397 380.402 56.467 379.761 55.9863C378.532 54.9715 372.177 46.9602 372.444 46.6932C372.871 46.2125 387.505 40.7114 388.253 40.7114C388.68 40.7114 390.656 42.7943 392.632 45.3579ZM420.191 50.6454C422.381 53.4227 423.93 55.9329 423.663 56.1465C423.289 56.5204 408.121 61.4874 407.373 61.4874C406.786 61.4874 399.362 51.8204 399.682 51.4466C400.11 51.0193 414.904 45.5716 415.758 45.5182C416.079 45.5182 418.055 47.8148 420.191 50.6454ZM374.847 52.2477C376.93 54.8113 378.426 57.0545 378.212 57.2681C377.998 57.4283 374.473 58.7102 370.414 60.0988L362.99 62.5556L358.931 58.1761C356.688 55.8261 354.819 53.6897 354.765 53.5295C354.605 53.1556 368.865 47.7079 370.147 47.6545C370.681 47.6011 372.711 49.6841 374.847 52.2477ZM559.428 51.0727C568.775 52.1943 582.928 55.1318 592.061 57.8022C622.184 66.6147 654.549 84.5601 679.598 106.404C689.586 115.057 690.974 117.567 682.002 110.57C678.904 108.167 672.708 103.734 668.115 100.743C635.269 78.9521 599.805 65.9203 564.235 62.5022C555.476 61.6476 532.617 61.6476 524.178 62.5022C504.417 64.4249 482.733 68.5908 455.815 75.6408L444.599 78.5782L442.57 76.2817C439.739 73.0771 436.107 68.4306 436.374 68.2169C436.481 68.1635 441.875 66.5612 448.338 64.7988C478.514 56.3602 497.367 52.4613 515.366 50.8056C518.731 50.5386 522.469 50.1647 523.644 50.0579C528.505 49.5772 552.859 50.2715 559.428 51.0727ZM401.765 56.8943C404.008 59.6715 405.718 62.0749 405.45 62.1817C405.237 62.3419 401.605 63.517 397.386 64.9056L389.695 67.309L387.238 64.5317C385.903 63.0363 383.98 60.8465 382.965 59.7249C381.31 57.909 381.256 57.642 382.164 57.4283C382.698 57.2681 386.33 55.9863 390.122 54.5443C393.968 53.1556 397.172 51.9807 397.332 51.9272C397.493 51.9272 399.469 54.1704 401.765 56.8943ZM357.489 58.5499L361.602 63.0363L355.3 64.959C351.828 66.0272 348.303 67.1488 347.395 67.4158C345.846 67.9499 345.633 67.7897 341.947 63.784C339.811 61.4874 338.048 59.4579 338.048 59.2977C338.048 58.9772 351.614 54.117 352.789 54.0636C353.11 54.0102 355.246 56.0397 357.489 58.5499ZM428.577 61.2738C432.742 66.5612 433.33 67.3624 433.009 67.6295C432.742 67.8965 419.177 71.9556 417.521 72.276C416.933 72.3828 415.224 70.7806 412.554 67.6829C410.311 65.0658 408.602 62.8226 408.762 62.7158C409.029 62.4488 424.517 57.3215 425.105 57.2681C425.265 57.2681 426.814 59.084 428.577 61.2738ZM384.14 63.0897C386.384 65.5999 388.093 67.6829 388.039 67.7363C387.665 68.1101 373.779 72.1692 372.871 72.1692C372.177 72.1692 370.468 70.6737 368.224 68.2169C366.248 66.0272 364.593 64.0511 364.593 63.8374C364.486 63.4636 379.12 58.2829 379.814 58.4431C379.974 58.4965 381.951 60.5795 384.14 63.0897ZM340.185 63.8908C343.283 67.0419 344.03 68.0567 343.443 68.4306C342.375 69.0715 330.091 72.276 329.45 72.0624C328.862 71.8488 321.064 65.0658 321.011 64.692C320.958 64.4249 334.63 59.992 335.645 59.9386C335.966 59.8852 337.995 61.701 340.185 63.8908ZM413.195 70.4601C414.263 71.6885 415.011 72.8635 414.85 72.9703C414.744 73.0771 411.165 74.1987 406.893 75.4271L399.202 77.6169L395.036 73.2374C392.793 70.7806 391.03 68.6442 391.244 68.484C391.404 68.3238 394.929 67.0419 399.095 65.7067L406.679 63.1965L408.975 65.7067C410.257 67.0419 412.18 69.1783 413.195 70.4601ZM564.556 63.8908C595.105 66.9351 625.388 76.9226 653.695 93.2657C670.626 103.04 691.989 118.955 692.149 121.893C692.149 122.106 688.144 119.596 683.23 116.285C641.625 88.5657 598.31 74.8396 552.806 74.8396C528.398 74.8396 507.622 77.6703 468.366 86.3225C460.889 87.9248 454.533 89.2066 454.159 89.1532C453.038 88.8328 445.774 80.1271 446.255 79.6464C447.804 78.0976 495.658 67.4158 509.758 65.4931C527.97 62.9829 549.281 62.3954 564.556 63.8908ZM366.836 68.484C369.026 70.7806 370.681 72.8101 370.574 72.9169C370.468 73.0771 366.996 74.0385 362.937 75.1067L355.567 77.0828L351.401 73.0237C349.104 70.7806 347.288 68.9647 347.342 68.9113C349.318 68.1635 361.976 64.2647 362.35 64.2647C362.67 64.2647 364.646 66.1874 366.836 68.484ZM323.414 68.751C325.604 70.6737 327.26 72.4362 327.1 72.6499C326.993 72.9169 323.735 73.7715 319.943 74.5726L313.053 76.0681L308.994 72.7033C306.697 70.8874 305.042 69.2317 305.202 69.0181C305.629 68.5908 317.112 65.3863 318.501 65.2794C319.035 65.2794 321.278 66.8283 323.414 68.751ZM393.113 73.0237C395.303 75.2135 397.119 77.243 397.225 77.5101C397.439 78.0442 394.555 78.9521 387.291 80.7146L382.431 81.8896L380.936 80.8214C379.013 79.4328 373.565 73.8783 373.886 73.6112C374.099 73.3976 388.199 69.0715 388.84 69.0181C389.054 68.9647 390.977 70.7806 393.113 73.0237ZM438.724 73.8249C440.967 76.4953 442.73 78.7385 442.623 78.8453C442.249 79.2192 427.829 82.851 426.921 82.7975C426.013 82.7975 418.749 75.3203 418.322 73.9851C418.215 73.5578 432.208 69.1249 434.024 69.0181C434.345 68.9647 436.481 71.1544 438.724 73.8249ZM306.965 72.7567C309.101 74.5726 310.757 76.1749 310.596 76.3351C310.116 76.7624 300.609 78.5248 298.526 78.5248C297.084 78.5248 295.695 77.8305 292.651 75.6408C290.461 74.0385 288.806 72.7033 288.912 72.6499C289.073 72.6499 291.957 71.9556 295.321 71.101C298.686 70.2999 301.837 69.6056 302.265 69.5522C302.692 69.5522 304.828 70.9942 306.965 72.7567ZM350.012 73.451L354.178 77.4033L348.41 78.7385C338.476 81.0351 339.758 81.1953 335.325 77.4567C333.135 75.6408 331.319 73.9851 331.212 73.718C331.105 73.5044 332.067 73.0237 333.349 72.7033C334.63 72.3294 337.568 71.5283 339.918 70.834C342.268 70.1396 344.564 69.6056 344.992 69.6056C345.419 69.5522 347.662 71.3147 350.012 73.451ZM290.942 75.9612C293.078 77.4567 294.68 78.8453 294.574 79.0589C294.413 79.2726 291.529 79.7533 288.111 80.1805L281.969 80.8214L277.696 78.2578C275.4 76.8158 273.531 75.5874 273.637 75.534C273.904 75.2669 284.212 73.3976 285.761 73.2908C286.616 73.2374 288.538 74.2521 290.942 75.9612ZM332.868 77.0294C335.004 78.8453 336.927 80.501 337.141 80.7146C337.781 81.3021 324.963 83.5987 323.468 83.1714C322.827 82.9578 320.53 81.5157 318.394 79.9669L314.495 77.0828L318.661 76.1749C320.958 75.6942 324.055 74.9464 325.497 74.5726C326.993 74.1987 328.381 73.8249 328.595 73.8249C328.809 73.7715 330.731 75.2669 332.868 77.0294ZM376.503 78.3112C379.227 81.0351 380.188 82.3703 379.654 82.5305C378.372 83.0112 366.996 85.5214 366.195 85.5214C365.34 85.5214 357.115 78.5782 357.489 78.151C357.917 77.7771 370.147 74.4124 371.429 74.3589C372.123 74.3055 373.993 75.801 376.503 78.3112ZM420.512 78.6851C422.755 81.0885 424.571 83.1714 424.571 83.3851C424.571 83.7055 410.952 87.1237 409.563 87.1237C409.136 87.1237 406.893 85.201 404.596 82.9044L400.377 78.6317L403.528 77.7771C405.237 77.2964 408.495 76.3351 410.685 75.6408C412.874 74.9464 415.064 74.4124 415.598 74.3589C416.079 74.3055 418.269 76.2817 420.512 78.6851ZM275.507 78.418L279.566 80.9817L276.895 81.3555C275.4 81.5157 272.409 81.676 270.219 81.7294C266.587 81.7294 265.84 81.5157 262.208 79.6464C260.018 78.5248 258.309 77.5101 258.469 77.4567C259.11 77.243 267.976 76.0681 269.632 75.9612C270.914 75.9078 272.569 76.6021 275.507 78.418ZM575.985 77.243C612.41 81.2487 648.247 94.6543 681.468 116.659C691.241 123.175 694.232 125.578 695.461 127.875L696.529 130.064L695.3 129.21C686.168 123.281 671.106 115.057 660.638 110.357C616.736 90.4884 578.762 84.4532 529.252 89.5805C518.517 90.6487 506.019 92.518 483.748 96.2032C473.226 97.9657 464.307 99.4077 463.88 99.4077C463.079 99.4077 455.228 91.0225 455.655 90.5952C455.922 90.2748 480.276 84.9873 490.958 82.9044C507.835 79.593 523.217 77.4567 537.531 76.4419C546.824 75.801 566.745 76.2283 575.985 77.243ZM259.591 79.6999C261.941 80.9283 263.757 81.9964 263.703 82.1032C263.596 82.1566 260.766 82.3169 257.401 82.3703C251.526 82.4771 251.099 82.3703 247.36 80.7146C245.224 79.7533 243.568 78.8453 243.675 78.7385C243.835 78.5782 250.565 77.8839 254.357 77.5635C254.944 77.5635 257.294 78.5248 259.591 79.6999ZM317.059 80.6078C320.37 82.9044 321.225 83.7589 320.53 83.9726C320.05 84.1862 317.059 84.6135 313.908 84.9873L308.193 85.6816L303.867 83.0646C301.517 81.6226 299.594 80.2874 299.594 80.1271C299.594 79.8601 309.742 77.7771 311.878 77.5635C312.305 77.5635 314.655 78.8987 317.059 80.6078ZM197.85 78.5782C198.812 79.0055 198.812 79.0589 197.583 79.0055C196.835 79.0055 195.66 78.7919 194.913 78.5782C193.631 78.151 193.631 78.151 195.18 78.151C196.088 78.151 197.263 78.3112 197.85 78.5782ZM214.46 80.1805L217.077 81.2487L213.606 80.9283C209.867 80.6078 204.633 79.4328 204.099 78.7919C203.351 78.0442 211.897 79.1658 214.46 80.1805ZM243.515 80.2874C245.544 81.2487 247.253 82.2101 247.253 82.4771C247.253 83.4385 237.426 82.2635 233.367 80.8214L229.361 79.3794L233.1 79.0589C235.183 78.8987 237.48 78.7385 238.281 78.6851C239.135 78.6317 241.432 79.326 243.515 80.2874ZM359.465 82.1566C361.815 84.0794 363.578 85.7885 363.471 85.8953C363.044 86.3759 350.012 88.6191 349.531 88.2987C347.715 87.2305 341.253 82.1032 341.467 81.943C341.734 81.676 353.377 78.7385 354.552 78.6317C354.926 78.5782 357.169 80.1805 359.465 82.1566ZM229.361 80.7146L232.566 82.3169L227.492 81.9964C224.181 81.7828 221.404 81.2487 219.214 80.3942L216.009 79.1658H221.083C225.623 79.1658 226.477 79.326 229.361 80.7146ZM402.727 83.1714C404.916 85.3612 406.732 87.3907 406.839 87.6044C406.893 87.8714 403.688 88.6725 399.736 89.4737L392.472 90.9157L390.229 89.0998C389.001 88.0851 386.918 86.3225 385.636 85.1476L383.286 83.0646L389.374 81.5692C392.739 80.7146 395.944 79.8601 396.531 79.593C398.401 78.8453 398.774 79.0589 402.727 83.1714ZM301.357 82.9578L305.736 85.7885L302.532 86.1623C294.52 87.0703 292.651 86.8566 288.806 84.7203C286.776 83.6521 285.067 82.5839 284.907 82.3169C284.8 82.1032 287.257 81.5692 290.408 81.1419C293.559 80.6612 296.336 80.2874 296.55 80.2339C296.763 80.2339 298.953 81.4623 301.357 82.9578ZM448.231 84.8271C450.421 87.4441 452.183 89.6339 452.023 89.7407C451.916 89.8475 448.391 90.7555 444.225 91.6634L436.588 93.4259L432.208 89.0998C429.751 86.6964 427.775 84.6135 427.775 84.4532C427.775 84.1328 441.929 80.2874 443.317 80.2339C443.798 80.1805 445.988 82.2635 448.231 84.8271ZM285.868 84.5601L289.713 86.8566L284.106 87.2305L278.498 87.6044L274.385 85.6816C272.089 84.6135 270.219 83.5453 270.219 83.3316C270.219 83.0646 271.982 82.7975 274.118 82.6907C276.201 82.6373 278.871 82.4771 279.993 82.4237C281.595 82.3169 282.931 82.851 285.868 84.5601ZM343.603 85.5214C346.167 87.4975 347.502 88.7794 347.075 88.9396C346.647 89.0998 343.71 89.5271 340.559 89.9543L334.791 90.7021L330.251 87.9782C327.794 86.4828 325.764 85.0941 325.764 84.9339C325.764 84.7203 327.527 84.2396 329.663 83.9192C331.746 83.5453 334.363 83.0646 335.378 82.851C338.689 82.1032 339.33 82.3169 343.603 85.5214ZM224.021 83.3851C224.928 83.7589 224.822 83.8657 223.486 83.8123C222.632 83.8123 221.297 83.5987 220.549 83.3851C219.321 83.0112 219.374 82.9578 221.083 82.9578C222.098 82.9578 223.433 83.118 224.021 83.3851ZM236.038 83.8657C237.693 84.1328 239.83 84.7203 240.844 85.201C242.714 86.0555 242.714 86.0555 239.028 85.735C236.945 85.5748 233.955 84.9873 232.352 84.4532C229.522 83.5453 229.468 83.4919 231.231 83.4385C232.245 83.4385 234.435 83.5987 236.038 83.8657ZM270.219 85.2544C272.302 86.2691 273.958 87.2839 273.958 87.4975C273.958 87.6578 271.234 87.6578 267.976 87.4975C263.116 87.1771 261.3 86.8566 258.469 85.6816L254.998 84.1862L258.202 83.8657C265.359 83.1714 266.32 83.2782 270.219 85.2544ZM386.063 87.2305C388.466 89.3134 390.282 91.1827 390.122 91.2896C389.748 91.6634 379.173 93.4793 377.304 93.5327C376.129 93.5327 374.58 92.6248 371.536 90.2214C369.239 88.4055 367.637 86.8032 367.957 86.6964C368.598 86.4828 380.615 83.5987 381.416 83.4385C381.63 83.4385 383.713 85.0941 386.063 87.2305ZM254.784 85.5214L258.202 87.1771L253.662 86.8566C249.764 86.5896 242.447 84.8271 242.447 84.1328C242.447 84.026 244.476 83.9192 246.933 83.9192C250.778 83.9192 251.847 84.1328 254.784 85.5214ZM434.184 93.5327C434.184 93.693 430.873 94.4941 426.867 95.2952L419.55 96.7373L417.948 95.402C414.583 92.7316 410.418 88.8328 410.685 88.5657C410.845 88.4055 414.316 87.4975 418.429 86.4828L425.906 84.6135L430.019 88.9396C432.262 91.343 434.131 93.3725 434.184 93.5327ZM324.75 85.9487C325.444 86.4828 327.42 87.818 329.129 88.8328L332.28 90.7555L329.93 91.0759C328.702 91.2362 325.818 91.5032 323.575 91.6634C319.195 92.0373 318.554 91.8237 312.412 88.2453L310.009 86.8566L315.884 86.0021C323.628 84.8271 323.308 84.8271 324.75 85.9487ZM311.878 89.3669C315.403 91.3964 315.67 91.6634 314.495 91.9839C313.801 92.1975 311.184 92.3578 308.674 92.4112C304.561 92.4646 303.813 92.3044 300.021 90.4884C297.725 89.4203 296.016 88.3521 296.229 88.1385C296.443 87.9248 298.366 87.6044 300.395 87.4975C302.478 87.4441 304.988 87.2839 306.057 87.2305C307.499 87.1771 309.047 87.7112 311.878 89.3669ZM369.72 90.435C372.711 92.785 373.672 93.8532 373.138 94.1202C372.711 94.3873 369.773 94.868 366.569 95.1884L360.747 95.8293L356.261 92.8384C353.43 90.9691 352.042 89.7407 352.522 89.5805C353.43 89.26 363.631 87.2839 364.753 87.1771C365.18 87.1771 367.423 88.6191 369.72 90.435ZM250.458 88.5123L252.327 89.2066L249.657 88.8862C246.025 88.4589 244.156 87.7112 246.719 87.7112C247.734 87.7112 249.443 88.0851 250.458 88.5123ZM265.145 89.8475L267.282 90.8089H265.466C263.276 90.8623 256.814 89.3669 256.066 88.6191C255.158 87.818 262.795 88.7794 265.145 89.8475ZM296.55 90.168L300.395 92.1975L294.948 92.3578C289.82 92.518 289.34 92.4112 285.601 90.7555L281.702 88.993L284.373 88.6725C290.942 87.8714 292.491 88.0851 296.55 90.168ZM281.275 90.3282L284.907 91.8771L279.94 91.9305C276.308 91.9305 274.118 91.6634 271.661 90.8089C266.267 88.993 266.32 88.7794 272.195 88.726C277.002 88.726 277.964 88.8862 281.275 90.3282ZM413.462 93.2123C415.705 95.2952 417.521 97.0043 417.467 97.1111C417.361 97.1646 414.103 97.752 410.257 98.3395L403.154 99.5145L399.202 96.4702C393.487 92.0907 393.54 92.1441 397.172 91.3964C398.881 91.0225 402.086 90.3282 404.275 89.8475C406.465 89.3134 408.548 89.0464 408.815 89.2066C409.136 89.3134 411.219 91.1293 413.462 93.2123ZM582.448 90.1146C611.128 92.8918 636.925 100.369 665.178 114.042C675.753 119.169 684.779 124.136 692.95 129.37C696.903 131.934 697.917 132.842 698.558 134.497C698.986 135.619 699.466 136.741 699.573 137.008C699.68 137.221 697.49 136.206 694.766 134.658C669.344 120.664 637.138 109.075 610.968 104.482C595.159 101.704 589.765 101.33 567.173 101.277C540.522 101.277 534.807 101.758 493.842 107.526L474.188 110.303L469.701 105.817C467.191 103.307 465.162 101.17 465.162 100.957C465.162 100.636 491.919 96.043 508.423 93.5327C518.143 92.0907 535.822 90.0612 542.604 89.6339C551.844 89.0464 574.65 89.3134 582.448 90.1146ZM353.804 92.8384C356.314 94.4941 358.29 95.9361 358.184 95.9896C358.077 96.0964 355.193 96.4168 351.775 96.7373L345.472 97.3248L341.093 94.6543C338.689 93.1589 336.82 91.8771 336.98 91.8771C337.141 91.8237 339.918 91.3964 343.122 90.8623C346.38 90.3282 349.051 89.9009 349.158 89.8475C349.211 89.8475 351.294 91.1293 353.804 92.8384ZM457.898 95.5089C460.195 97.9657 462.01 99.9418 461.85 99.9418C461.743 99.9418 458.165 100.529 453.946 101.224C446.415 102.505 446.255 102.505 444.92 101.544C443.05 100.209 437.656 94.6543 437.977 94.4407C438.244 94.1736 453.038 90.9157 453.412 91.0225C453.572 91.0759 455.601 93.1055 457.898 95.5089ZM338.262 94.4407L342.588 97.0043L339.918 97.3782C338.476 97.5384 335.698 97.6986 333.776 97.752C330.731 97.752 329.77 97.485 325.764 95.4555L321.225 93.1055L326.833 92.6248C329.93 92.3044 332.761 92.0373 333.188 91.9839C333.616 91.9839 335.912 93.0521 338.262 94.4407ZM275.026 93.5862C275.507 93.8532 275.133 93.9066 273.958 93.693C272.943 93.5327 271.715 93.1589 271.287 92.8918C270.219 92.2509 273.904 92.9453 275.026 93.5862ZM396.585 96.043C399.041 98.0191 400.964 99.6748 400.911 99.7282C400.857 99.835 397.76 100.262 394.128 100.69L387.452 101.544L383.019 98.4998C380.562 96.8441 378.479 95.2952 378.319 95.0816C378.212 94.868 379.494 94.5475 381.203 94.3339C382.859 94.1202 385.689 93.6396 387.452 93.2657C389.214 92.8918 390.977 92.5714 391.351 92.518C391.724 92.4646 394.074 94.0668 396.585 96.043ZM292.384 94.9214L295.588 96.2032L291.316 95.8827C287.15 95.6157 280.474 94.2805 279.726 93.5862C279.512 93.4259 281.542 93.3725 284.266 93.4793C287.844 93.5862 290.034 94.0134 292.384 94.9214ZM323.735 95.7759L327.1 97.5384L321.812 97.6986C316.311 97.8589 315.724 97.6986 310.009 95.0282L307.338 93.7998L312.679 93.5327C318.661 93.2123 318.982 93.3191 323.735 95.7759ZM307.605 95.5623L311.077 97.2714L306.27 97.0577C301.891 96.8441 295.802 95.2952 294.68 94.1736C294.467 93.96 296.496 93.7998 299.22 93.8532C303.6 93.9066 304.508 94.0668 307.605 95.5623ZM380.295 98.1793C382.591 99.835 384.514 101.384 384.514 101.544C384.514 101.918 377.464 102.612 373.726 102.612C372.337 102.612 370.468 101.865 367.477 100.102C365.073 98.7134 363.151 97.4316 363.151 97.2714C363.151 97.0577 370.628 95.7759 375.328 95.2418C375.755 95.1884 377.945 96.5237 380.295 98.1793ZM440.059 98.66C442.089 100.636 443.798 102.345 443.798 102.559C443.798 102.933 432.315 104.749 430.125 104.749C429.111 104.749 420.619 98.3929 421.046 97.9657C421.313 97.6452 433.33 95.2418 434.825 95.1884C435.947 95.135 437.229 95.9896 440.059 98.66ZM364.646 99.7816C366.996 101.224 368.972 102.505 369.026 102.719C369.026 102.986 366.302 103.146 362.937 103.146H356.848L352.469 100.796L348.089 98.4464L353.056 97.9657C355.834 97.6452 358.557 97.3782 359.198 97.3248C359.786 97.3248 362.243 98.3929 364.646 99.7816ZM301.997 98.4464C305.202 99.3543 303.066 99.5145 298.526 98.66C294.574 97.9123 294.574 97.9123 297.191 97.8589C298.686 97.8589 300.822 98.0725 301.997 98.4464ZM318.821 100.316L321.759 101.597L318.02 101.277C314.121 100.903 308.78 99.6213 307.872 98.8202C306.804 97.8055 315.884 99.0338 318.821 100.316ZM349.425 100.743L353.804 103.146H348.036C342.535 103.146 342.108 103.04 337.888 101.117L333.509 99.1407L338.583 98.8202C341.36 98.66 343.977 98.4998 344.351 98.4464C344.725 98.3929 346.968 99.4077 349.425 100.743ZM423.129 101.651C425.372 103.467 427.134 105.016 427.028 105.122C426.867 105.336 415.171 106.885 413.889 106.885C412.821 106.885 404.543 100.85 405.29 100.583C406.198 100.262 416.773 98.4464 417.948 98.3929C418.589 98.3395 420.832 99.7816 423.129 101.651ZM333.776 100.743L337.781 102.612H334.043C329.984 102.612 325.871 101.704 322.026 99.9952L319.622 98.927H324.696C329.396 98.8736 330.091 99.0338 333.776 100.743ZM406.839 103.787C408.922 105.336 410.631 106.778 410.631 106.992C410.685 107.259 400.163 108.274 398.507 108.113C397.706 108.06 389.321 102.986 389.535 102.719C389.748 102.559 399.896 101.17 401.925 101.063C402.513 101.063 404.703 102.292 406.839 103.787ZM467.832 105.55C470.289 108.007 472.212 110.196 472.051 110.357C471.624 110.73 461.103 112.226 458.753 112.226C457.204 112.226 456.136 111.532 452.237 108.113C449.673 105.87 447.697 103.894 447.804 103.734C448.071 103.52 460.836 101.17 462.491 101.063C462.918 101.063 465.322 103.04 467.832 105.55ZM315.296 102.719C316.418 102.986 317.219 103.307 317.112 103.413C316.899 103.68 309.635 102.132 309.261 101.758C308.887 101.384 312.199 101.918 315.296 102.719ZM594.091 103.413C608.778 105.016 623.305 107.9 636.017 111.745C653.588 116.979 671.854 124.35 687.61 132.468C700.054 138.877 700.962 139.464 702.244 142.455C702.885 143.844 703.365 145.019 703.365 145.126C703.365 145.233 701.282 144.325 698.719 143.15C683.604 136.153 672.335 131.72 658.235 127.18C629.661 117.994 609.419 114.629 579.457 113.988C557.452 113.561 540.895 114.522 500.518 118.635L484.816 120.237L480.33 116.125C477.873 113.828 475.843 111.852 475.843 111.692C475.843 111.371 499.504 107.9 515.633 105.817C526.849 104.428 539.347 103.2 548.479 102.612C559.161 101.971 585.118 102.399 594.091 103.413ZM330.571 104.695C333.081 105.55 334.897 106.297 334.684 106.297C334.096 106.351 323.414 103.627 323.147 103.36C322.346 102.612 326.779 103.413 330.571 104.695ZM391.404 105.657L395.463 108.22L392.793 108.594C391.297 108.754 388.573 108.968 386.704 108.968C383.713 109.021 382.805 108.754 379.761 107.099C374.26 104.001 374.206 104.001 378.426 103.627C386.971 102.933 386.971 102.933 391.404 105.657ZM345.953 106.03C348.41 106.992 350.493 107.953 350.653 108.113C351.508 108.968 344.084 107.579 339.384 106.084L334.043 104.321L337.781 104.268C340.933 104.215 342.321 104.535 345.953 106.03ZM361.709 106.938L366.035 109.021H361.655C357.97 109.021 356.528 108.754 352.415 107.205C349.692 106.191 347.288 105.122 347.075 104.909C346.808 104.642 349.051 104.535 351.988 104.642C356.955 104.802 357.703 105.016 361.709 106.938ZM376.129 106.511L380.295 108.914L376.396 109.235C374.206 109.449 371.749 109.449 370.842 109.235C368.759 108.754 360.48 105.176 360.48 104.802C360.48 104.588 363.044 104.375 366.248 104.321L371.963 104.161L376.129 106.511ZM450.528 108.327C452.984 110.57 454.907 112.493 454.8 112.653C454.64 112.76 451.596 113.187 447.964 113.561L441.395 114.202L437.122 111.104C431.14 106.725 430.766 106.404 431.033 106.191C431.354 105.87 441.715 104.375 443.958 104.268C445.828 104.215 446.469 104.642 450.528 108.327ZM433.864 110.303L438.938 114.255L436.161 114.576C434.612 114.736 431.567 114.896 429.324 114.95L425.265 115.057L420.245 111.692C417.521 109.822 415.491 108.22 415.812 108.113C416.399 107.9 426.333 106.511 427.882 106.404C428.416 106.404 431.087 108.113 433.864 110.303ZM418.108 111.799L423.182 115.163L416.933 115.324C410.952 115.484 410.631 115.43 407.64 113.882C405.931 112.974 403.581 111.692 402.406 110.944L400.27 109.662L402.139 109.342C404.756 108.914 407.32 108.647 410.418 108.594C412.821 108.487 413.462 108.808 418.108 111.799ZM402.299 112.333L407.213 115.163L401.872 115.324L396.585 115.484L391.457 112.92L386.384 110.357L390.656 110.036C393.006 109.876 395.516 109.716 396.211 109.662C396.905 109.609 399.629 110.837 402.299 112.333ZM357.489 110.517C357.596 110.73 356.902 110.837 355.887 110.73C354.872 110.624 354.071 110.41 354.071 110.303C354.071 109.876 357.222 110.089 357.489 110.517ZM372.818 111.959L375.702 113.294L371.963 112.974C369.934 112.76 366.889 112.172 365.287 111.692L362.35 110.73L366.142 110.677C369.186 110.624 370.574 110.891 372.818 111.959ZM387.505 112.493C389.748 113.508 391.511 114.522 391.351 114.683C391.19 114.843 388.68 114.683 385.743 114.416C381.79 113.988 379.547 113.454 376.984 112.279L373.565 110.677H378.479C383.019 110.624 383.713 110.784 387.505 112.493ZM478.14 115.804C480.383 118.047 482.146 120.024 481.985 120.184C481.612 120.558 474.668 121.199 470.716 121.252C468.099 121.305 467.779 121.145 463.613 117.78C461.263 115.804 459.287 114.042 459.287 113.882C459.287 113.561 469.328 112.012 472.906 111.799C473.6 111.745 475.523 113.241 478.14 115.804ZM461.209 117.406C463.666 119.436 465.696 121.199 465.696 121.359C465.696 121.519 462.812 121.839 459.233 122L452.771 122.374L448.017 119.116C445.4 117.3 443.371 115.697 443.478 115.537C443.691 115.324 450.795 114.416 456.029 113.882C456.403 113.882 458.753 115.43 461.209 117.406ZM382.378 115.964L385.315 117.033L382.912 116.766C381.577 116.659 379.44 116.178 378.105 115.751L375.702 115.003H377.571C378.586 114.95 380.776 115.43 382.378 115.964ZM588.803 115.43C613.531 116.926 632.278 120.344 655.03 127.447C669.344 131.88 687.983 139.251 699.146 144.859C704.166 147.369 704.273 147.476 705.341 150.253C705.929 151.802 706.409 153.137 706.356 153.19C706.303 153.244 702.511 151.855 698.024 150.093C662.935 136.367 631.263 129.156 596.815 127.127C583.836 126.379 549.654 126.753 529.252 127.928C521.455 128.409 510.666 128.996 505.218 129.263L495.338 129.744L490.905 125.738C488.501 123.495 486.579 121.626 486.685 121.519C486.899 121.305 502.548 119.65 521.775 117.887C550.456 115.163 572.14 114.416 588.803 115.43ZM445.294 118.742L449.887 122.106L443.584 122.267L437.336 122.427L432.742 119.596C430.232 118.047 428.416 116.712 428.63 116.659C429.057 116.499 436.695 115.751 439.686 115.484C440.22 115.484 442.73 116.926 445.294 118.742ZM398.988 118.101C400.857 118.955 401.925 119.65 401.338 119.65C398.881 119.703 393.327 118.528 390.229 117.3L386.918 115.964L391.244 116.232C394.555 116.445 396.478 116.926 398.988 118.101ZM414.37 119.009C416.453 120.13 418.162 121.145 418.162 121.305C418.162 121.466 416.079 121.412 413.515 121.199C410.097 120.878 407.533 120.184 404.169 118.795C401.552 117.727 399.469 116.766 399.469 116.605C399.469 116.445 401.979 116.499 405.023 116.659C410.15 116.926 410.898 117.139 414.37 119.009ZM429.698 119.276C432.155 120.771 434.184 122.106 434.184 122.267C434.184 122.427 431.461 122.374 428.203 122.16C422.488 121.786 421.954 121.679 418.002 119.543C413.889 117.3 413.889 117.3 415.598 116.979C416.56 116.766 419.123 116.605 421.259 116.552C425.105 116.499 425.265 116.552 429.698 119.276ZM410.364 122.961L412.554 123.976L410.524 123.709C409.403 123.495 407.106 122.908 405.45 122.374L402.406 121.359L405.29 121.679C406.893 121.839 409.189 122.427 410.364 122.961ZM488.448 125.151C490.851 127.287 492.881 129.21 492.881 129.424C492.934 129.691 489.837 129.851 486.098 129.851H479.262L474.882 126.593C472.479 124.777 470.503 123.121 470.503 122.854C470.503 122.587 471.998 122.374 473.867 122.32C476.645 122.267 483.054 121.679 483.801 121.359C483.908 121.359 485.991 123.068 488.448 125.151ZM426.173 125.097C430.339 127.234 430.286 127.234 423.77 126.112C420.939 125.631 413.355 123.121 413.355 122.641C413.355 122.534 415.331 122.587 417.788 122.747C421.473 123.014 422.808 123.388 426.173 125.097ZM696.956 125.845C696.903 126.112 696.315 125.685 695.621 124.884C694.873 124.083 694.286 123.121 694.286 122.747C694.339 122.374 694.927 122.801 695.621 123.709C696.369 124.563 696.956 125.525 696.956 125.845ZM472.372 126.219C474.829 128.088 476.858 129.744 476.912 129.904C476.912 130.064 473.974 130.118 470.396 129.958L463.826 129.691L459.287 126.7L454.747 123.709L459.02 123.388C468.259 122.747 467.405 122.587 472.372 126.219ZM440.967 125.952C443.531 127.341 445.347 128.516 444.973 128.676C444.653 128.783 442.249 128.622 439.632 128.302C435.68 127.875 434.024 127.394 430.606 125.631L426.44 123.495L431.407 123.442C436.267 123.442 436.374 123.442 440.967 125.952ZM456.349 126.326C458.432 127.768 460.355 129.156 460.622 129.424C460.942 129.744 458.859 129.797 455.334 129.53C449.78 129.156 449.353 129.05 445.133 126.753C442.676 125.418 440.754 124.189 440.861 124.029C440.967 123.816 443.638 123.709 446.842 123.709H452.611L456.349 126.326ZM593.61 128.249C619.139 129.53 638.634 132.735 663.042 139.731C676.661 143.63 689.052 147.85 699.787 152.176L707.371 155.22L708.546 158.585C709.187 160.401 709.561 161.896 709.347 161.896C709.133 161.896 706.036 160.935 702.564 159.76C688.678 155.06 667.314 149.345 652.36 146.194C627.631 141.067 598.737 139.144 536.569 138.556L505.699 138.236L501.48 134.764C499.13 132.842 497.26 131.186 497.367 131.133C497.527 130.919 538.545 128.729 550.349 128.302C566.318 127.661 581.646 127.661 593.61 128.249ZM436.748 129.958C438.297 130.545 439.472 131.133 439.365 131.293C439.045 131.613 431.407 129.637 430.125 128.836C428.523 127.928 433.33 128.729 436.748 129.958ZM700.535 131.613C701.229 133.055 701.229 133.109 700.267 132.575C698.986 131.88 698.238 130.972 697.757 129.317L697.33 127.981L698.558 129.05C699.199 129.637 700.107 130.812 700.535 131.613ZM453.091 132.575C457.204 134.818 457.097 134.978 451.863 134.07C448.872 133.536 441.448 130.866 440.594 130.011C440.433 129.851 442.356 129.904 444.813 130.118C448.605 130.438 449.887 130.812 453.091 132.575ZM468.153 133.856C470.342 135.245 472.105 136.42 471.998 136.527C471.891 136.58 469.701 136.42 467.031 136.153C462.972 135.726 461.583 135.298 457.684 133.269L453.145 130.866L458.646 131.133C464.093 131.346 464.147 131.346 468.153 133.856ZM498.916 134.23C501.159 136.1 503.029 137.809 503.029 138.076C503.082 138.343 500.358 138.396 496.833 138.183L490.531 137.809L486.044 134.764L481.558 131.72L486.312 131.4C488.929 131.239 491.919 131.079 492.934 131.026C494.536 130.919 495.498 131.453 498.916 134.23ZM483 134.177C485.083 135.726 487.006 137.114 487.273 137.381C487.54 137.648 485.243 137.702 482.199 137.542C476.858 137.221 476.484 137.114 472.372 134.818C470.022 133.483 467.885 132.201 467.618 131.934C467.298 131.667 469.595 131.453 473.12 131.453H479.155L483 134.177ZM704.647 134.23C705.128 134.871 705.502 135.619 705.502 135.886C705.502 136.58 703.953 135.245 703.312 134.017C702.564 132.628 703.632 132.788 704.647 134.23ZM704.006 138.022C705.288 140.426 705.181 140.746 703.365 139.678C702.511 139.144 701.549 138.129 701.282 137.381C701.015 136.58 700.588 135.512 700.374 134.925C700 133.963 700.107 133.963 701.549 135.138C702.404 135.779 703.525 137.114 704.006 138.022ZM464.307 138.129C466.016 138.877 467.351 139.625 467.191 139.731C466.871 140.052 461.583 138.61 458.486 137.328L455.815 136.206L458.486 136.473C459.981 136.634 462.545 137.328 464.307 138.129ZM471.41 137.862C475.042 138.343 476.484 138.823 479.956 140.8C484.602 143.47 484.496 143.577 478.727 142.348C475.042 141.601 466.764 138.343 466.764 137.648C466.764 137.275 466.283 137.221 471.41 137.862ZM709.667 139.197C709.507 139.358 709.187 139.09 709.027 138.556C708.706 137.809 708.759 137.755 709.294 138.236C709.667 138.61 709.828 139.037 709.667 139.197ZM494.697 142.295C497.26 143.951 499.343 145.446 499.343 145.5C499.343 145.767 493.308 144.965 490.264 144.325C488.074 143.844 479.635 139.571 479.582 138.93C479.582 138.77 481.932 138.77 484.763 138.93L489.997 139.197L494.697 142.295ZM709.614 142.295C710.308 143.737 710.308 143.79 709.4 143.31C708.012 142.562 706.783 141.013 706.303 139.464L705.929 138.129L707.371 139.464C708.172 140.212 709.133 141.494 709.614 142.295ZM509.972 143.31C512.642 145.393 514.778 147.155 514.672 147.262C514.618 147.315 512.001 147.155 508.85 146.835L503.189 146.247L497.901 142.883L492.667 139.464H498.916H505.111L509.972 143.31ZM575.451 140.533C623.466 142.135 639.114 143.951 668.382 151.268C680.666 154.312 688.144 156.448 701.069 160.614L710.255 163.552L711.377 167.023C712.017 168.946 712.445 170.602 712.338 170.709C712.231 170.815 708.546 169.961 704.166 168.786C688.785 164.78 666.46 159.867 653.428 157.677C631.37 153.938 613.211 152.496 560.763 150.146C547.091 149.505 531.816 148.704 526.795 148.33L517.716 147.689L513.069 144.058C510.506 142.081 508.263 140.212 508.102 139.892C507.675 139.197 547.572 139.625 575.451 140.533ZM707.638 145.339C709.027 148.063 709.027 148.117 706.944 147.155C705.715 146.568 704.914 145.66 704.433 144.325C704.06 143.256 703.632 142.028 703.472 141.654C702.831 139.998 706.623 143.363 707.638 145.339ZM714.261 145.339L715.222 147.048L713.94 146.194C713.192 145.713 712.338 144.698 712.017 144.004C711.43 142.776 711.483 142.669 712.338 143.15C712.819 143.417 713.673 144.431 714.261 145.339ZM485.19 144.859C488.501 145.446 494.216 148.01 493.094 148.384C492.4 148.651 484.976 146.247 482.84 145.072C481.131 144.164 481.291 144.111 485.19 144.859ZM712.765 148.063C714.314 150.573 714.207 151.001 712.284 150.093C711.163 149.559 709.24 146.408 709.24 145.019C709.24 144.218 711.59 146.247 712.765 148.063ZM498.863 146.942C501.586 147.315 503.296 148.01 506.447 149.933C508.743 151.321 510.506 152.496 510.399 152.603C509.918 153.137 500.732 150.306 497.314 148.597C492.988 146.354 493.201 146.14 498.863 146.942ZM718.587 148.544C719.121 149.131 719.281 149.612 718.961 149.612C718.64 149.612 718.106 149.131 717.786 148.544C717.465 147.956 717.305 147.476 717.412 147.476C717.519 147.476 718.053 147.956 718.587 148.544ZM513.283 148.49C517.128 148.918 517.556 149.078 521.455 152.015C523.698 153.725 525.46 155.22 525.353 155.327C525.247 155.434 522.843 155.06 520.066 154.526C516.007 153.725 514.138 153.03 510.666 151.001C508.263 149.612 506.286 148.33 506.286 148.223C506.286 147.903 508.636 148.01 513.283 148.49ZM708.225 149.398C709.774 150.2 712.391 154.632 711.697 155.327C711.537 155.487 710.736 155.327 709.828 155.006C708.653 154.472 708.012 153.618 707.211 151.428C706.623 149.826 706.249 148.544 706.409 148.544C706.516 148.544 707.371 148.918 708.225 149.398ZM717.305 150.52C717.786 151.054 718.48 152.015 718.8 152.656C719.388 153.831 719.388 153.831 718.053 153.244C717.252 152.87 716.183 151.695 715.596 150.52C714.581 148.597 714.581 148.49 715.489 148.971C716.023 149.292 716.824 149.933 717.305 150.52ZM534.326 150.146C539.614 150.413 554.782 151.161 567.974 151.748C626.403 154.365 644.669 156.395 680.132 164.353C692.416 167.077 711.163 171.884 712.391 172.578C713.032 172.952 715.809 180.002 715.489 180.429C715.436 180.482 711.911 179.788 707.638 178.934C670.305 171.349 648.781 168.198 611.502 164.834C567.119 160.881 550.776 159.172 536.356 157.143L529.252 156.128L524.926 153.03C522.576 151.321 520.493 149.719 520.333 149.452C520.173 149.185 521.081 149.131 522.363 149.292C523.644 149.452 529.039 149.879 534.326 150.146ZM714.1 152.603C715.542 153.351 718.106 157.463 717.519 158.104C717.358 158.211 716.611 157.997 715.756 157.677C714.688 157.25 713.887 156.235 713.139 154.419C712.498 152.923 712.124 151.748 712.231 151.748C712.391 151.748 713.246 152.122 714.1 152.603ZM722.859 154.472C723.607 155.38 724.088 156.288 723.928 156.448C723.607 156.769 721.578 155.006 720.937 153.778C720.082 152.176 721.311 152.656 722.859 154.472ZM512.535 154.419C514.351 154.846 520.173 157.944 520.173 158.478C520.173 158.798 512.215 156.075 510.292 155.06C507.889 153.778 508.743 153.564 512.535 154.419ZM719.922 155.807C721.257 156.662 723.5 160.134 722.966 160.668C722.272 161.309 719.922 159.332 718.961 157.303C717.679 154.686 717.786 154.579 719.922 155.807ZM524.606 156.662C527.81 157.143 529.092 157.677 532.35 159.92C534.486 161.362 536.142 162.644 536.035 162.751C535.501 163.285 526.795 160.401 523.538 158.638C518.25 155.701 518.303 155.647 524.606 156.662ZM714.474 160.935C715.062 162.484 715.489 163.872 715.382 163.926C715.275 164.032 714.314 163.819 713.299 163.445C711.43 162.751 710.736 161.629 709.507 157.196L709.133 155.968L711.27 157.036C713.032 157.944 713.62 158.638 714.474 160.935ZM727.933 158.157C728.254 158.745 728.307 159.226 728.094 159.226C727.826 159.226 727.346 158.745 726.972 158.157C726.598 157.57 726.545 157.089 726.865 157.089C727.132 157.089 727.613 157.57 727.933 158.157ZM544.153 159.493C557.239 161.148 569.523 162.377 600.019 165.101C648.621 169.427 665.712 171.83 704.967 179.735L715.916 181.924L716.771 184.702C717.305 186.197 717.839 188.12 717.999 188.974L718.373 190.523L697.65 187.479C668.97 183.206 660.478 182.031 634.735 178.987C607.55 175.729 592.969 173.753 575.718 170.922C560.87 168.465 542.337 164.727 540.735 163.872C539.133 163.071 532.457 158.585 532.457 158.371C532.457 158.051 533.365 158.104 544.153 159.493ZM727.666 161.469C728.734 163.285 728.467 163.819 726.972 163.018C726.064 162.537 723.661 159.172 723.661 158.371C723.661 157.623 726.865 160.134 727.666 161.469ZM720.242 163.231C720.937 164.673 721.364 165.955 721.257 166.062C721.15 166.169 720.242 165.955 719.174 165.581C717.679 165.047 717.145 164.46 716.504 162.751C716.13 161.522 715.596 160.134 715.382 159.6C715.008 158.692 715.062 158.692 716.984 159.6C718.533 160.294 719.334 161.202 720.242 163.231ZM723.393 162.537C724.515 163.071 727.399 167.344 727.399 168.519C727.399 168.626 726.491 168.412 725.423 167.931C723.821 167.344 723.126 166.596 722.219 164.513C720.99 161.736 721.15 161.522 723.393 162.537ZM732.74 164.567C733.381 165.421 733.755 166.169 733.541 166.169C732.58 166.169 731.031 164.887 730.283 163.445C729.482 161.896 729.482 161.843 730.55 162.377C731.138 162.697 732.099 163.659 732.74 164.567ZM537.531 164.62C539.881 165.207 547.304 169.373 545.969 169.373C544.901 169.373 539.56 167.344 536.302 165.688C533.098 164.086 531.976 163.124 533.952 163.712C534.433 163.872 536.035 164.299 537.531 164.62ZM714.741 165.261C715.916 165.742 716.611 166.756 717.572 169.053C718.266 170.815 718.747 172.364 718.587 172.471C718.427 172.631 717.412 172.471 716.29 172.151C714.421 171.563 714.207 171.296 713.139 168.038C711.911 164.353 712.071 164.086 714.741 165.261ZM732.046 168.839C733.274 170.869 733.328 171.082 732.42 170.762C731.885 170.495 730.978 170.174 730.443 170.068C729.536 169.801 727.399 166.329 727.399 165.047C727.399 163.872 730.711 166.543 732.046 168.839ZM738.348 168.732C737.974 169.106 735.945 167.184 735.945 166.543C735.945 166.222 736.532 166.543 737.28 167.237C738.028 167.931 738.508 168.626 738.348 168.732ZM554.141 168.305C572.513 172.044 597.135 175.782 628.326 179.521C658.128 183.046 670.359 184.702 695.087 188.387C708.012 190.31 718.64 191.965 718.747 192.019C718.8 192.126 719.441 194.155 720.136 196.505C721.364 200.724 721.364 200.885 720.403 200.885C715.649 200.885 661.813 194.422 640.61 191.271C609.686 186.731 581.913 180.749 558.36 173.539C555.049 172.524 551.577 170.976 549.174 169.48C547.037 168.145 545.275 166.97 545.275 166.863C545.275 166.543 546.129 166.703 554.141 168.305ZM720.563 167.504C722.005 168.092 722.699 168.893 723.607 170.922C725.103 174.501 725.103 174.661 722.646 174.02C720.723 173.486 720.403 173.165 719.441 170.442C717.892 166.169 717.839 166.329 720.563 167.504ZM737.28 171.029C738.615 173.112 738.348 173.593 736.479 172.578C735.571 172.097 733.274 168.893 733.274 168.145C733.274 167.184 736.105 169.267 737.28 171.029ZM728.361 170.709C729.001 171.296 731.031 176.316 730.657 176.316C730.443 176.316 729.482 176.049 728.521 175.729C727.186 175.248 726.491 174.501 725.476 172.204C724.782 170.548 724.195 169.16 724.195 169.053C724.195 168.786 727.987 170.335 728.361 170.709ZM743.101 174.447C744.437 176.477 743.048 176.103 740.965 173.86C739.95 172.845 739.149 171.723 739.149 171.456C739.149 170.655 742.087 172.845 743.101 174.447ZM732.74 172.311C734.182 173.059 737.44 177.652 736.906 178.186C736.746 178.346 735.891 178.186 734.93 177.865C733.701 177.438 732.847 176.584 731.939 174.661C730.123 171.082 730.123 170.976 732.74 172.311ZM717.732 173.86C719.388 174.447 719.708 174.928 720.83 178.132L722.058 181.764L719.762 181.444C718.533 181.23 717.358 180.91 717.145 180.696C716.984 180.482 716.344 178.72 715.756 176.69C714.581 172.845 714.634 172.738 717.732 173.86ZM739.256 175.088C740.004 175.302 742.888 179.361 742.888 180.215C742.888 180.376 742.087 180.269 741.125 179.948C739.79 179.521 738.989 178.72 737.814 176.69C736.532 174.394 736.479 174.073 737.333 174.394C737.867 174.661 738.775 174.928 739.256 175.088ZM570.698 178.399C586.293 182.672 605.467 186.838 622.237 189.669C643.067 193.194 684.832 198.695 707.104 200.885C723.661 202.487 721.684 201.793 723.02 206.706C723.661 209.003 724.195 211.139 724.195 211.513C724.195 211.887 722.966 211.994 720.349 211.833C718.213 211.673 712.391 211.299 707.371 211.032C681.094 209.377 647.072 204.196 622.985 198.161C601.514 192.766 569.629 181.818 561.458 177.011C559.054 175.622 558.52 174.981 560.123 175.462C560.603 175.622 565.357 176.957 570.698 178.399ZM725.583 176.477C725.957 176.851 726.705 178.506 727.346 180.215L728.467 183.313L726.491 182.939C723.874 182.512 723.661 182.245 722.272 178.399L721.097 175.141L723.02 175.515C724.141 175.676 725.263 176.156 725.583 176.477ZM747.695 176.584C748.389 177.331 748.709 177.919 748.442 177.919C747.801 177.919 747.054 177.331 746.146 176.156C745.024 174.768 746.253 175.088 747.695 176.584ZM731.084 178.132C731.832 178.506 732.793 179.895 733.541 181.657C734.236 183.26 734.716 184.648 734.663 184.702C734.609 184.809 733.488 184.541 732.259 184.168C730.07 183.58 729.856 183.313 728.681 180.162L727.399 176.797L728.628 177.118C729.268 177.331 730.39 177.759 731.084 178.132ZM747.588 180.376C748.816 182.298 748.602 182.512 746.466 181.711C745.451 181.284 742.888 178.026 742.888 177.118C742.888 176.263 746.573 178.88 747.588 180.376ZM736.425 179.574C737.654 180.002 738.508 180.91 739.47 182.832C740.217 184.328 740.698 185.61 740.591 185.77C740.324 185.983 736.479 185.396 736.479 185.129C736.479 185.076 735.891 183.633 735.143 181.978C733.755 178.773 733.808 178.666 736.425 179.574ZM751.647 181.177C752.395 181.764 753.302 182.779 753.623 183.366C754.157 184.328 754.05 184.381 752.929 184.061C752.288 183.847 751.166 183.046 750.525 182.298C748.496 179.895 749.19 179.201 751.647 181.177ZM743.208 181.978C744.33 182.298 747.534 186.838 746.947 187.372C746.84 187.479 745.932 187.426 744.917 187.265C743.315 186.945 742.888 186.464 741.606 183.954C740.484 181.604 740.324 181.07 741.018 181.337C741.499 181.497 742.514 181.818 743.208 181.978ZM723.874 187.372L725.209 191.271L723.5 191.218C720.403 191.164 719.815 190.63 718.747 186.945C717.412 182.191 717.358 182.245 720.189 182.886C722.539 183.42 722.539 183.42 723.874 187.372ZM748.709 183.847C750.312 184.381 754.264 189.135 753.142 189.135C750.579 189.135 749.35 188.333 747.962 185.877C747.214 184.435 746.68 183.26 746.787 183.26C746.893 183.26 747.748 183.527 748.709 183.847ZM758.59 185.343C759.177 185.983 759.391 186.464 759.071 186.464C758.323 186.464 755.706 184.381 755.706 183.74C755.706 183.046 757.308 183.954 758.59 185.343ZM728.467 184.862C728.948 185.129 729.749 186.571 730.283 188.173C730.871 189.722 731.405 191.324 731.565 191.645C731.832 192.499 729.696 192.553 727.773 191.858C726.758 191.431 726.224 190.63 725.583 188.387C725.103 186.785 724.568 185.022 724.355 184.541C724.088 183.794 724.301 183.74 725.85 184.061C726.865 184.274 728.04 184.648 728.467 184.862ZM589.818 189.615C627.471 202.487 668.916 210.231 713.566 212.741L725.103 213.382L726.331 217.388C726.972 219.631 727.666 221.874 727.773 222.355C728.04 223.263 727.399 223.316 719.602 223.316C686.061 223.316 650.117 216.373 616.576 203.555C603.971 198.748 577.32 186.571 577.32 185.663C577.32 185.449 577.641 185.396 578.015 185.556C578.335 185.663 583.676 187.532 589.818 189.615ZM733.862 185.93C735.571 186.411 735.891 186.838 737.173 189.989L738.562 193.514L736.051 193.14C734.663 192.927 733.488 192.713 733.434 192.713C733.381 192.66 732.74 191.004 731.992 188.974C730.55 185.129 730.604 185.022 733.862 185.93ZM757.842 188.494C758.697 189.562 759.338 190.523 759.177 190.63C759.071 190.737 758.27 190.683 757.415 190.47C756.347 190.256 755.332 189.402 754.424 188.066C753.676 186.891 753.035 185.823 753.035 185.716C753.035 184.862 756.507 186.891 757.842 188.494ZM740.164 187.319C741.606 187.639 742.14 188.227 743.475 190.844C744.383 192.606 745.024 194.155 744.917 194.208C744.81 194.315 743.742 194.262 742.461 194.102C740.431 193.835 740.11 193.568 739.203 191.538C737.066 186.785 737.12 186.731 740.164 187.319ZM763.984 190.737C765.213 192.072 765.319 192.339 764.572 192.339C763.13 192.339 761.794 191.431 760.513 189.669L759.391 188.12L760.94 188.654C761.794 188.921 763.183 189.882 763.984 190.737ZM748.549 189.829C749.457 190.79 751.647 194.956 751.38 195.17C751.273 195.277 750.258 195.277 749.137 195.116C747.267 194.903 747 194.636 745.505 191.698L743.849 188.44L745.932 188.814C747.054 189.028 748.229 189.508 748.549 189.829ZM755.439 192.072C756.026 192.82 756.988 194.155 757.522 195.063L758.537 196.772L757.255 196.452C756.56 196.238 755.439 196.078 754.798 196.078C753.943 196.078 753.249 195.277 752.021 193.087L750.418 190.096L752.395 190.416C753.516 190.63 754.851 191.324 755.439 192.072ZM768.844 192.393C770.821 193.621 771.034 193.941 769.913 193.941C769.058 193.941 765.8 191.324 766.601 191.271C766.868 191.271 767.883 191.752 768.844 192.393ZM760.887 192.82C761.527 193.14 764.892 197.253 764.679 197.413C764.572 197.466 763.61 197.413 762.489 197.253C760.833 197.093 760.192 196.612 758.91 194.743C758.002 193.461 757.308 192.286 757.308 192.126C757.308 191.752 759.818 192.286 760.887 192.82ZM725.637 193.087C725.744 193.194 726.384 195.116 727.079 197.36L728.361 201.472L725.637 201.312L722.913 201.152L721.684 197.146C720.99 194.956 720.456 192.927 720.456 192.66C720.456 192.232 725.156 192.606 725.637 193.087ZM730.978 193.728C732.42 193.995 732.74 194.476 733.968 198L735.411 202.006L732.633 201.846L729.909 201.686L728.628 198C727.987 195.918 727.399 194.048 727.399 193.835C727.399 193.354 728.788 193.301 730.978 193.728ZM769.379 196.665L771.355 198.695L769.272 198.428C767.296 198.107 765.533 196.719 764.251 194.369C763.29 192.713 767.242 194.476 769.379 196.665ZM738.028 194.849C738.935 195.063 739.683 196.131 740.805 198.588C741.659 200.511 742.354 202.166 742.354 202.273C742.354 202.433 741.125 202.487 739.63 202.38L736.906 202.22L735.624 198.802C734.93 196.932 734.342 195.223 734.342 194.956C734.342 194.422 736.212 194.315 738.028 194.849ZM775.2 195.437C775.04 195.597 774.613 195.437 774.239 195.063C773.758 194.529 773.811 194.476 774.559 194.796C775.093 194.956 775.36 195.277 775.2 195.437ZM744.597 195.811C745.772 196.024 746.466 196.826 747.695 199.282C748.549 201.045 749.297 202.594 749.297 202.754C749.297 202.914 748.175 203.021 746.787 202.914C744.276 202.754 744.223 202.7 742.781 199.816C741.072 196.345 740.912 195.01 742.247 195.277C742.728 195.383 743.796 195.597 744.597 195.811ZM772.957 196.291C773.918 196.665 775.254 197.68 776.001 198.481L777.336 199.923L775.734 199.549C773.064 198.962 772.957 198.908 771.782 197.199C770.447 195.33 770.554 195.223 772.957 196.291ZM751.593 196.879C752.662 197.093 754.851 200.083 756.187 203.181C756.24 203.395 755.172 203.555 753.783 203.448C751.166 203.288 751.166 203.288 749.457 200.083C747.374 196.185 747.321 195.971 749.03 196.345C749.778 196.505 750.899 196.719 751.593 196.879ZM759.605 198.268C760.94 199.87 763.237 203.715 763.023 203.875C762.863 204.036 761.634 203.982 760.299 203.822C758.056 203.448 757.735 203.235 756.24 200.564C755.385 198.962 754.638 197.627 754.638 197.52C754.638 197.253 759.391 198 759.605 198.268ZM767.83 201.258C768.791 202.38 769.592 203.448 769.592 203.662C769.592 203.929 768.524 204.089 767.242 204.089C764.999 204.089 764.785 203.929 763.237 201.525C762.329 200.083 761.581 198.802 761.581 198.641C761.581 198.481 762.596 198.535 763.824 198.748C765.533 199.069 766.548 199.71 767.83 201.258ZM781.128 199.336C782.143 199.923 782.944 200.564 782.944 200.671C782.944 201.258 779.9 200.137 778.939 199.229C777.497 197.84 778.832 197.894 781.128 199.336ZM774.773 202.327L776.482 204.356L774.346 204.516C772.049 204.677 772.102 204.73 769.485 201.205L768.31 199.656L770.714 199.977C772.583 200.244 773.438 200.671 774.773 202.327ZM781.449 203.128C782.571 203.982 783.479 204.837 783.479 204.944C783.479 205.05 782.624 205.157 781.609 205.157C780.114 205.157 779.206 204.677 777.443 202.968L775.2 200.778L777.336 201.152C778.458 201.365 780.327 202.22 781.449 203.128ZM788.232 204.036C790.368 205.585 790.315 205.905 787.911 205.424C785.882 205.05 782.944 203.341 782.944 202.487C782.944 201.793 786.469 202.807 788.232 204.036ZM727.292 202.807C728.788 203.128 729.055 203.502 730.337 207.24C731.084 209.483 731.672 211.46 731.672 211.727C731.672 211.94 730.39 212.1 728.788 212.1H725.904L725.316 209.804C724.996 208.575 724.408 206.439 723.981 204.997C723.18 202.487 723.18 202.487 724.408 202.487C725.103 202.487 726.384 202.647 727.292 202.807ZM735.998 203.982C736.212 204.196 736.853 205.691 737.44 207.294C738.028 208.896 738.668 210.658 738.882 211.139C739.203 211.994 738.882 212.1 736.318 212.1H733.381L731.992 207.935C731.245 205.691 730.604 203.608 730.604 203.341C730.604 202.861 735.464 203.448 735.998 203.982ZM743.208 204.303C743.262 204.303 744.063 206.119 744.971 208.255L746.626 212.154L743.582 211.994L740.538 211.833L739.309 208.629C737.12 202.968 737.066 203.395 740.271 203.822C741.873 204.036 743.208 204.249 743.208 204.303ZM794.694 204.944L796.03 205.638L794.374 205.691C793.413 205.691 792.131 205.211 791.436 204.623L790.155 203.555L791.757 203.875C792.665 204.089 793.947 204.57 794.694 204.944ZM749.19 204.516C749.991 204.783 750.899 206.012 751.967 208.255C752.875 210.124 753.57 211.78 753.57 211.887C753.57 211.994 752.288 212.1 750.739 212.1H747.908L746.466 208.629C745.665 206.706 745.024 204.89 745.024 204.623C745.024 204.036 747.267 203.982 749.19 204.516ZM757.415 205.531C758.27 206.599 761.047 211.299 761.047 211.78C761.047 211.94 759.765 212.1 758.216 212.1H755.385L753.676 208.629C752.715 206.706 751.967 204.997 751.967 204.89C751.967 204.73 753.035 204.623 754.264 204.623C755.866 204.623 756.881 204.944 757.415 205.531ZM766.067 208.041C767.135 209.59 767.99 211.032 767.99 211.246C767.99 211.887 762.809 211.566 762.275 210.872C762.008 210.552 761.1 209.11 760.299 207.667L758.857 205.157H761.527C764.144 205.157 764.198 205.211 766.067 208.041ZM773.491 208.308C774.559 209.75 775.467 211.086 775.467 211.246C775.467 211.406 774.292 211.566 772.85 211.566C770.34 211.566 770.126 211.46 768.31 208.949C767.242 207.507 766.388 206.225 766.388 206.012C766.388 205.852 767.509 205.691 768.951 205.691C771.301 205.745 771.568 205.905 773.491 208.308ZM780.434 208.255C781.502 209.323 782.41 210.391 782.41 210.605C782.41 210.819 781.235 211.032 779.793 211.032C777.39 211.032 777.069 210.872 775.254 208.682C774.185 207.4 773.331 206.172 773.331 206.012C773.331 205.852 774.452 205.852 775.894 206.012C777.817 206.279 778.885 206.813 780.434 208.255ZM800.943 206.012C800.783 206.172 800.302 206.225 799.928 206.065C799.501 205.905 799.661 205.745 800.249 205.745C800.836 205.691 801.157 205.852 800.943 206.012ZM785.134 206.653C785.561 206.866 786.843 207.774 787.965 208.682L789.994 210.391L787.431 210.605C785.081 210.765 784.6 210.605 782.838 209.003C781.716 207.988 780.808 206.973 780.808 206.706C780.808 206.172 783.852 206.119 785.134 206.653ZM794.32 208.202L796.403 209.644L794.908 210.071C792.772 210.658 791.436 210.231 789.621 208.362L788.072 206.76H790.155C791.543 206.76 792.932 207.24 794.32 208.202ZM801.37 208.202C803.347 209.163 803.026 209.964 800.73 209.964C799.661 209.964 795.763 208.041 795.763 207.507C795.763 206.92 799.715 207.4 801.37 208.202ZM807.94 208.148C808.581 208.362 809.115 208.682 809.115 208.949C809.115 209.697 806.338 209.483 804.842 208.629L803.507 207.881L805.109 207.828C806.017 207.828 807.245 207.988 807.94 208.148ZM814.83 208.682C814.669 208.842 814.189 208.896 813.815 208.736C813.387 208.575 813.548 208.415 814.135 208.415C814.723 208.362 815.043 208.522 814.83 208.682ZM822.894 209.964C823.695 210.017 823.695 210.071 822.841 210.552C822.253 210.925 821.078 210.979 819.903 210.712C818.034 210.338 817.981 210.338 819.262 209.964C820.01 209.697 820.918 209.644 821.292 209.75C821.719 209.857 822.414 209.964 822.894 209.964ZM810.183 212.528C810.77 212.741 810.61 212.955 809.649 213.222C807.192 213.916 805.43 213.703 803.4 212.474L801.37 211.299L803.507 210.979C805.43 210.712 806.284 210.925 810.183 212.528ZM815.951 210.819C817.714 211.299 817.393 211.94 815.203 212.261C813.815 212.474 812.693 212.261 811.305 211.566L809.382 210.552H812.052C813.548 210.498 815.257 210.658 815.951 210.819ZM800.89 212.421C803.4 213.863 803.881 214.771 802.225 214.771C801.691 214.771 800.569 214.878 799.715 215.091C798.486 215.305 797.739 214.985 796.03 213.596L793.947 211.833L795.763 211.513C796.777 211.299 797.845 211.139 798.059 211.086C798.326 211.086 799.555 211.673 800.89 212.421ZM793.84 213.542C795.282 214.664 796.19 215.572 795.976 215.679C795.709 215.732 794.427 216.053 793.146 216.32C790.902 216.8 790.796 216.747 788.445 214.611L785.989 212.367L787.538 212.047C790.528 211.406 791.33 211.566 793.84 213.542ZM786.63 214.45C787.911 215.732 788.713 216.907 788.445 217.067C788.232 217.174 786.897 217.441 785.561 217.655C783.158 218.029 783.105 217.975 780.915 215.358C778.458 212.474 778.565 212.314 782.41 212.154C784.013 212.1 784.707 212.474 786.63 214.45ZM771.835 216.213C773.01 217.815 773.865 219.204 773.758 219.311C773.705 219.417 772.263 219.631 770.66 219.791L767.723 220.165L765.747 216.8L763.717 213.436L765.747 213.169C768.791 212.741 769.485 213.062 771.835 216.213ZM779.206 215.358C780.434 216.8 781.396 218.136 781.289 218.189C781.182 218.296 779.847 218.563 778.298 218.777L775.574 219.15L773.384 216.213C772.156 214.664 771.194 213.169 771.194 213.008C771.194 212.795 772.476 212.635 774.025 212.635C776.802 212.635 776.963 212.688 779.206 215.358ZM731.992 213.596C732.58 214.023 735.411 221.5 735.411 222.675C735.411 223.156 734.609 223.316 732.366 223.209L729.322 223.049L727.826 218.242C727.025 215.572 726.331 213.382 726.331 213.275C726.331 212.955 731.458 213.222 731.992 213.596ZM756.507 216.907C757.575 218.99 758.27 220.913 758.109 221.18C757.896 221.5 756.56 221.714 755.118 221.714H752.448L750.632 217.815L748.816 213.97L750.525 213.649C754.424 212.902 754.477 212.902 756.507 216.907ZM764.198 216.747C765.373 218.723 766.281 220.379 766.227 220.432C766.174 220.486 764.785 220.646 763.183 220.806L760.246 221.18L758.27 217.495C757.148 215.465 756.24 213.649 756.24 213.489C756.24 213.329 757.575 213.169 759.124 213.169H762.062L764.198 216.747ZM741.553 217.815C742.461 220.058 743.262 222.088 743.315 222.355C743.422 222.569 742.087 222.782 740.324 222.782C736.746 222.782 737.173 223.209 735.143 217.281L733.862 213.703H736.906H739.95L741.553 217.815ZM748.709 216.747C751.38 222.195 751.38 222.141 747.908 222.355C744.49 222.515 745.024 223.103 742.354 216.373L741.285 213.703H744.223H747.16L748.709 216.747Z" fill="url(#paint0_linear_53_11)"/>
<defs>
<linearGradient id="paint0_linear_53_11" x1="491.999" y1="334" x2="510.499" y2="-7.99998" gradientUnits="userSpaceOnUse">
<stop stop-color="white"/>
<stop offset="1" stop-opacity="0"/>
</linearGradient>
</defs>
</svg>
