<svg width="36" height="36" viewBox="0 0 36 36" fill="none" xmlns="http://www.w3.org/2000/svg">
<path d="M3 10.5L15.2474 19.0732C16.2391 19.7674 16.735 20.1145 17.2744 20.249C17.7508 20.3677 18.2492 20.3677 18.7256 20.249C19.265 20.1145 19.7609 19.7674 20.7526 19.0732L33 10.5M10.2 30H25.8C28.3202 30 29.5804 30 30.543 29.5095C31.3897 29.0781 32.0781 28.3897 32.5095 27.543C33 26.5804 33 25.3202 33 22.8V13.2C33 10.6798 33 9.41965 32.5095 8.45704C32.0781 7.61031 31.3897 6.9219 30.543 6.49047C29.5804 6 28.3202 6 25.8 6H10.2C7.67976 6 6.41965 6 5.45704 6.49047C4.61031 6.9219 3.9219 7.61031 3.49047 8.45704C3 9.41965 3 10.6798 3 13.2V22.8C3 25.3202 3 26.5804 3.49047 27.543C3.9219 28.3897 4.61031 29.0781 5.45704 29.5095C6.41965 30 7.67976 30 10.2 30Z" stroke="white" stroke-width="3" stroke-linecap="round" stroke-linejoin="round"/>
</svg>
