<svg width="36" height="36" viewBox="0 0 36 36" fill="none" xmlns="http://www.w3.org/2000/svg">
<path d="M12.5704 13.2798C13.6144 15.4543 15.0376 17.4922 16.84 19.2946C18.6423 21.097 20.6803 22.5202 22.8547 23.5642C23.0418 23.654 23.1353 23.6989 23.2536 23.7333C23.6741 23.8559 24.1905 23.7679 24.5467 23.5129C24.6469 23.4411 24.7326 23.3554 24.9041 23.1839C25.4285 22.6595 25.6907 22.3973 25.9544 22.2259C26.9487 21.5794 28.2306 21.5794 29.2249 22.2259C29.4886 22.3973 29.7508 22.6595 30.2752 23.1839L30.5675 23.4762C31.3647 24.2734 31.7632 24.6719 31.9798 25.1C32.4104 25.9514 32.4104 26.9568 31.9798 27.8081C31.7632 28.2362 31.3647 28.6348 30.5675 29.4319L30.3311 29.6684C29.5366 30.4628 29.1394 30.86 28.5994 31.1634C28.0001 31.5 27.0694 31.7421 26.382 31.74C25.7626 31.7382 25.3393 31.618 24.4926 31.3777C19.9425 30.0863 15.649 27.6495 12.067 24.0676C8.48502 20.4856 6.04831 16.1921 4.75685 11.642C4.51654 10.7953 4.39639 10.372 4.39454 9.75254C4.3925 9.06521 4.63454 8.13447 4.97117 7.53522C5.27454 6.99517 5.67176 6.59795 6.4662 5.80352L6.70265 5.56706C7.49981 4.7699 7.89839 4.37132 8.32646 4.1548C9.17781 3.7242 10.1832 3.7242 11.0345 4.1548C11.4626 4.37132 11.8612 4.7699 12.6584 5.56706L12.9507 5.85937C13.4751 6.38378 13.7373 6.64598 13.9087 6.90965C14.5552 7.90398 14.5552 9.18586 13.9087 10.1802C13.7373 10.4439 13.4751 10.7061 12.9507 11.2305C12.7792 11.4019 12.6935 11.4877 12.6217 11.5879C12.3667 11.944 12.2786 12.4604 12.4012 12.881C12.4357 12.9993 12.4806 13.0928 12.5704 13.2798Z" stroke="#2C2C2C" stroke-width="3" stroke-linecap="round" stroke-linejoin="round"/>
</svg>
