<svg width="37" height="36" viewBox="0 0 37 36" fill="none" xmlns="http://www.w3.org/2000/svg">
<path d="M13.0704 13.2798C14.1144 15.4542 15.5376 17.4922 17.34 19.2945C19.1423 21.0969 21.1803 22.5201 23.3547 23.5641C23.5418 23.6539 23.6353 23.6988 23.7536 23.7333C24.1741 23.8559 24.6905 23.7678 25.0467 23.5128C25.1469 23.441 25.2326 23.3553 25.4041 23.1838C25.9285 22.6594 26.1907 22.3972 26.4544 22.2258C27.4487 21.5793 28.7306 21.5793 29.7249 22.2258C29.9886 22.3972 30.2508 22.6594 30.7752 23.1838L31.0675 23.4761C31.8647 24.2733 32.2632 24.6719 32.4798 25.1C32.9104 25.9513 32.9104 26.9567 32.4798 27.808C32.2632 28.2361 31.8647 28.6347 31.0675 29.4319L30.8311 29.6683C30.0366 30.4627 29.6394 30.86 29.0994 31.1633C28.5001 31.5 27.5694 31.742 26.882 31.74C26.2626 31.7381 25.8393 31.618 24.9926 31.3777C20.4425 30.0862 16.149 27.6495 12.567 24.0675C8.98502 20.4855 6.54831 16.192 5.25685 11.6419C5.01654 10.7952 4.89639 10.3719 4.89454 9.75248C4.8925 9.06515 5.13454 8.13441 5.47117 7.53515C5.77454 6.99511 6.17176 6.59789 6.9662 5.80346L7.20265 5.567C7.99981 4.76984 8.39839 4.37126 8.82646 4.15474C9.67781 3.72414 10.6832 3.72414 11.5345 4.15474C11.9626 4.37126 12.3612 4.76984 13.1584 5.567L13.4507 5.85931C13.9751 6.38372 14.2373 6.64592 14.4087 6.90959C15.0552 7.90392 15.0552 9.18579 14.4087 10.1801C14.2373 10.4438 13.9751 10.706 13.4507 11.2304C13.2792 11.4019 13.1935 11.4876 13.1217 11.5878C12.8667 11.944 12.7786 12.4604 12.9012 12.8809C12.9357 12.9992 12.9806 13.0927 13.0704 13.2798Z" stroke="white" stroke-width="3" stroke-linecap="round" stroke-linejoin="round"/>
</svg>
